%TF.GenerationSoftware,KiCad,Pcbnew,(5.1.9)-1*%
%TF.CreationDate,2021-05-12T10:09:58-03:00*%
%TF.ProjectId,esquematico,65737175-656d-4617-9469-636f2e6b6963,rev?*%
%TF.SameCoordinates,Original*%
%TF.FileFunction,Copper,L2,Bot*%
%TF.FilePolarity,Positive*%
%FSLAX46Y46*%
G04 Gerber Fmt 4.6, Leading zero omitted, Abs format (unit mm)*
G04 Created by KiCad (PCBNEW (5.1.9)-1) date 2021-05-12 10:09:58*
%MOMM*%
%LPD*%
G01*
G04 APERTURE LIST*
%TA.AperFunction,ComponentPad*%
%ADD10O,1.905000X2.000000*%
%TD*%
%TA.AperFunction,ComponentPad*%
%ADD11R,1.905000X2.000000*%
%TD*%
%TA.AperFunction,ComponentPad*%
%ADD12C,3.000000*%
%TD*%
%TA.AperFunction,ComponentPad*%
%ADD13R,3.000000X3.000000*%
%TD*%
%TA.AperFunction,ComponentPad*%
%ADD14O,1.524000X2.540000*%
%TD*%
%TA.AperFunction,ComponentPad*%
%ADD15C,1.248000*%
%TD*%
%TA.AperFunction,ComponentPad*%
%ADD16R,1.248000X1.248000*%
%TD*%
%TA.AperFunction,ComponentPad*%
%ADD17O,1.700000X1.700000*%
%TD*%
%TA.AperFunction,ComponentPad*%
%ADD18R,1.700000X1.700000*%
%TD*%
%TA.AperFunction,ComponentPad*%
%ADD19O,1.600000X1.600000*%
%TD*%
%TA.AperFunction,ComponentPad*%
%ADD20C,1.600000*%
%TD*%
%TA.AperFunction,ComponentPad*%
%ADD21R,1.500000X1.050000*%
%TD*%
%TA.AperFunction,ComponentPad*%
%ADD22O,1.500000X1.050000*%
%TD*%
%TA.AperFunction,ComponentPad*%
%ADD23R,1.130000X1.130000*%
%TD*%
%TA.AperFunction,ComponentPad*%
%ADD24C,1.130000*%
%TD*%
%TA.AperFunction,Conductor*%
%ADD25C,0.800000*%
%TD*%
%TA.AperFunction,Conductor*%
%ADD26C,2.700000*%
%TD*%
%TA.AperFunction,Conductor*%
%ADD27C,3.000000*%
%TD*%
%TA.AperFunction,Conductor*%
%ADD28C,0.254000*%
%TD*%
%TA.AperFunction,Conductor*%
%ADD29C,0.100000*%
%TD*%
G04 APERTURE END LIST*
D10*
%TO.P,Q2,3*%
%TO.N,Net-(Q2-Pad3)*%
X63500000Y-77470000D03*
%TO.P,Q2,2*%
%TO.N,Net-(Q2-Pad2)*%
X59690000Y-72390000D03*
D11*
%TO.P,Q2,1*%
%TO.N,Net-(Q2-Pad1)*%
X55880000Y-77470000D03*
%TD*%
D12*
%TO.P,AC,2*%
%TO.N,Net-(Q2-Pad1)*%
X54610000Y-62230000D03*
D13*
%TO.P,AC,1*%
%TO.N,AC*%
X54610000Y-57150000D03*
%TD*%
D14*
%TO.P,S11,IO*%
%TO.N,N/C*%
X72390000Y-83820000D03*
%TO.P,S11,RST*%
X74930000Y-83820000D03*
%TO.P,S11,3.3V*%
%TO.N,3.3V*%
X77470000Y-83820000D03*
%TO.P,S11,GND1*%
%TO.N,GND*%
X82550000Y-83820000D03*
%TO.P,S11,5V*%
%TO.N,N/C*%
X80010000Y-83820000D03*
%TO.P,S11,GND2*%
X85090000Y-83820000D03*
%TO.P,S11,Vin*%
X87630000Y-83820000D03*
%TO.P,S11,A0*%
%TO.N,/A0*%
X92710000Y-83820000D03*
%TO.P,S11,A1*%
%TO.N,N/C*%
X95250000Y-83820000D03*
%TO.P,S11,A3*%
X100330000Y-83820000D03*
%TO.P,S11,A2*%
X97790000Y-83820000D03*
%TO.P,S11,A4*%
X102870000Y-83820000D03*
%TO.P,S11,A5*%
X105410000Y-83820000D03*
%TO.P,S11,5*%
X92710000Y-35560000D03*
%TO.P,S11,6*%
X90170000Y-35560000D03*
%TO.P,S11,7*%
X87630000Y-35560000D03*
%TO.P,S11,4*%
X95250000Y-35560000D03*
%TO.P,S11,3*%
%TO.N,/PWM3*%
X97790000Y-35560000D03*
%TO.P,S11,2*%
%TO.N,/IO2*%
X100330000Y-35560000D03*
%TO.P,S11,1*%
%TO.N,N/C*%
X102870000Y-35560000D03*
%TO.P,S11,0*%
X105410000Y-35560000D03*
%TD*%
D15*
%TO.P,U1,6*%
%TO.N,Net-(R5-Pad1)*%
X68580000Y-68580000D03*
%TO.P,U1,5*%
%TO.N,Net-(U1-Pad5)*%
X68580000Y-66040000D03*
%TO.P,U1,4*%
%TO.N,Net-(Q2-Pad3)*%
X68580000Y-63500000D03*
%TO.P,U1,3*%
%TO.N,Net-(U1-Pad3)*%
X76200000Y-63500000D03*
%TO.P,U1,2*%
%TO.N,Net-(Q1-Pad1)*%
X76200000Y-66040000D03*
D16*
%TO.P,U1,1*%
%TO.N,Net-(R6-Pad1)*%
X76200000Y-68580000D03*
%TD*%
D17*
%TO.P,TH1,2*%
%TO.N,Net-(R1-Pad1)*%
X83820000Y-66040000D03*
D18*
%TO.P,TH1,1*%
%TO.N,3.3V*%
X83820000Y-68580000D03*
%TD*%
D17*
%TO.P,SW1,2*%
%TO.N,/IO2*%
X76200000Y-45720000D03*
D18*
%TO.P,SW1,1*%
%TO.N,GND*%
X76200000Y-48260000D03*
%TD*%
D19*
%TO.P,R5,2*%
%TO.N,Net-(Q2-Pad2)*%
X59690000Y-50800000D03*
D20*
%TO.P,R5,1*%
%TO.N,Net-(R5-Pad1)*%
X67310000Y-50800000D03*
%TD*%
D19*
%TO.P,R3,2*%
%TO.N,Net-(Q1-Pad2)*%
X92710000Y-50800000D03*
D20*
%TO.P,R3,1*%
%TO.N,/PWM3*%
X92710000Y-43180000D03*
%TD*%
D19*
%TO.P,R2,2*%
%TO.N,/IO2*%
X97790000Y-43180000D03*
D20*
%TO.P,R2,1*%
%TO.N,3.3V*%
X97790000Y-50800000D03*
%TD*%
D19*
%TO.P,R1,2*%
%TO.N,GND*%
X106680000Y-55880000D03*
D20*
%TO.P,R1,1*%
%TO.N,Net-(R1-Pad1)*%
X106680000Y-63500000D03*
%TD*%
D21*
%TO.P,Q1,1*%
%TO.N,Net-(Q1-Pad1)*%
X83820000Y-50800000D03*
D22*
%TO.P,Q1,3*%
%TO.N,GND*%
X83820000Y-48260000D03*
%TO.P,Q1,2*%
%TO.N,Net-(Q1-Pad2)*%
X83820000Y-49530000D03*
%TD*%
D13*
%TO.P,R4(Aquecedor)1,1*%
%TO.N,Net-(Q2-Pad2)*%
X59690000Y-41910000D03*
D12*
%TO.P,R4(Aquecedor)1,2*%
%TO.N,AC*%
X54610000Y-41910000D03*
%TD*%
D23*
%TO.P,U1A1A1,1*%
%TO.N,/A0*%
X103030000Y-74930000D03*
D24*
%TO.P,U1A1A1,2*%
X103030000Y-72390000D03*
%TO.P,U1A1A1,3*%
%TO.N,Net-(R1-Pad1)*%
X103030000Y-69850000D03*
%TO.P,U1A1A1,4*%
%TO.N,GND*%
X103030000Y-67310000D03*
%TO.P,U1A1A1,5*%
%TO.N,Net-(U1A1A1-Pad5)*%
X95090000Y-67310000D03*
%TO.P,U1A1A1,6*%
%TO.N,Net-(U1A1A1-Pad6)*%
X95090000Y-69850000D03*
%TO.P,U1A1A1,7*%
%TO.N,Net-(U1A1A1-Pad7)*%
X95090000Y-72390000D03*
%TO.P,U1A1A1,8*%
%TO.N,3.3V*%
X95090000Y-74930000D03*
%TD*%
D20*
%TO.P,R6,1*%
%TO.N,Net-(R6-Pad1)*%
X76200000Y-76200000D03*
D19*
%TO.P,R6,2*%
%TO.N,3.3V*%
X83820000Y-76200000D03*
%TD*%
D25*
%TO.N,Net-(Q1-Pad1)*%
X77470000Y-66040000D02*
X76200000Y-66040000D01*
X78740000Y-64770000D02*
X77470000Y-66040000D01*
X78740000Y-62230000D02*
X78740000Y-64770000D01*
X83820000Y-57150000D02*
X78740000Y-62230000D01*
X83820000Y-50800000D02*
X83820000Y-57150000D01*
%TO.N,Net-(Q1-Pad2)*%
X88900000Y-50800000D02*
X92710000Y-50800000D01*
X87630000Y-49530000D02*
X88900000Y-50800000D01*
X83820000Y-49530000D02*
X87630000Y-49530000D01*
%TO.N,Net-(R1-Pad1)*%
X103030000Y-69850000D02*
X104140000Y-69850000D01*
X104140000Y-69850000D02*
X106680000Y-67310000D01*
X106680000Y-67310000D02*
X106680000Y-63500000D01*
X83820000Y-66040000D02*
X92710000Y-66040000D01*
X92710000Y-66040000D02*
X93980000Y-64770000D01*
X93980000Y-64770000D02*
X96520000Y-64770000D01*
X101600000Y-69850000D02*
X103030000Y-69850000D01*
X96520000Y-64770000D02*
X101600000Y-69850000D01*
D26*
%TO.N,Net-(R5-Pad1)*%
X68580000Y-68580000D02*
X71120000Y-68580000D01*
X71120000Y-68580000D02*
X72390000Y-67310000D01*
X72390000Y-67310000D02*
X72390000Y-59690000D01*
X72390000Y-59690000D02*
X67310000Y-54610000D01*
X67310000Y-54610000D02*
X67310000Y-50800000D01*
D25*
%TO.N,GND*%
X106680000Y-56200000D02*
X106680000Y-55880000D01*
D26*
%TO.N,Net-(Q2-Pad3)*%
X63500000Y-77470000D02*
X63500000Y-66040000D01*
X63500000Y-66040000D02*
X66040000Y-63500000D01*
X66040000Y-63500000D02*
X68580000Y-63500000D01*
D27*
%TO.N,Net-(Q2-Pad2)*%
X59690000Y-68580000D02*
X59690000Y-50800000D01*
X59690000Y-50800000D02*
X59690000Y-41910000D01*
X59690000Y-72390000D02*
X59690000Y-68580000D01*
D25*
%TO.N,/IO2*%
X100330000Y-40640000D02*
X97790000Y-43180000D01*
X100330000Y-35560000D02*
X100330000Y-40640000D01*
X97790000Y-43180000D02*
X95250000Y-45720000D01*
X95250000Y-45720000D02*
X86360000Y-45720000D01*
X86360000Y-45720000D02*
X76200000Y-45720000D01*
%TO.N,3.3V*%
X83820000Y-74930000D02*
X95090000Y-74930000D01*
X83820000Y-74930000D02*
X83820000Y-68580000D01*
X83820000Y-68580000D02*
X82550000Y-68580000D01*
X87630000Y-60960000D02*
X97790000Y-50800000D01*
X82550000Y-68580000D02*
X81280000Y-67310000D01*
X81280000Y-63500000D02*
X83820000Y-60960000D01*
X81280000Y-67310000D02*
X81280000Y-63500000D01*
X83820000Y-60960000D02*
X87630000Y-60960000D01*
X83820000Y-78740000D02*
X83820000Y-76200000D01*
X82550000Y-80010000D02*
X83820000Y-78740000D01*
X78740000Y-80010000D02*
X82550000Y-80010000D01*
X77470000Y-81280000D02*
X78740000Y-80010000D01*
X77470000Y-83820000D02*
X77470000Y-81280000D01*
X83820000Y-76200000D02*
X83820000Y-74930000D01*
%TO.N,/PWM3*%
X97790000Y-35560000D02*
X97790000Y-38100000D01*
X97790000Y-38100000D02*
X92710000Y-43180000D01*
%TO.N,/A0*%
X92710000Y-83820000D02*
X92710000Y-82550000D01*
X92710000Y-82550000D02*
X93980000Y-81280000D01*
X93980000Y-81280000D02*
X101600000Y-81280000D01*
X101600000Y-81280000D02*
X102870000Y-80010000D01*
X102870000Y-75090000D02*
X103030000Y-74930000D01*
X102870000Y-80010000D02*
X102870000Y-75090000D01*
X103030000Y-74930000D02*
X103030000Y-72390000D01*
D27*
%TO.N,AC*%
X54610000Y-41910000D02*
X54610000Y-57150000D01*
%TO.N,Net-(Q2-Pad1)*%
X54610000Y-76200000D02*
X55880000Y-77470000D01*
X54610000Y-62230000D02*
X54610000Y-76200000D01*
D25*
%TO.N,Net-(R6-Pad1)*%
X76200000Y-76200000D02*
X76200000Y-68580000D01*
%TD*%
D28*
%TO.N,GND*%
X107823000Y-34342606D02*
X107823000Y-45720000D01*
X107825440Y-45744776D01*
X107832667Y-45768601D01*
X107844403Y-45790557D01*
X107860197Y-45809803D01*
X110363000Y-48312606D01*
X110363000Y-81227394D01*
X107860197Y-83730197D01*
X107844403Y-83749443D01*
X107832667Y-83771399D01*
X107825440Y-83795224D01*
X107823000Y-83820000D01*
X107823000Y-86233000D01*
X77597000Y-86233000D01*
X77597000Y-85719251D01*
X77743860Y-85704786D01*
X78007195Y-85624904D01*
X78249887Y-85495183D01*
X78462608Y-85320608D01*
X78637183Y-85107887D01*
X78740000Y-84915529D01*
X78842817Y-85107887D01*
X79017393Y-85320608D01*
X79230114Y-85495183D01*
X79472806Y-85624904D01*
X79736141Y-85704786D01*
X80010000Y-85731759D01*
X80283860Y-85704786D01*
X80547195Y-85624904D01*
X80789887Y-85495183D01*
X81002608Y-85320608D01*
X81177183Y-85107887D01*
X81281038Y-84913587D01*
X81307941Y-84979942D01*
X81458994Y-85209729D01*
X81651974Y-85405632D01*
X81879465Y-85560122D01*
X82132724Y-85667262D01*
X82206930Y-85682220D01*
X82423000Y-85559720D01*
X82423000Y-83947000D01*
X82403000Y-83947000D01*
X82403000Y-83693000D01*
X82423000Y-83693000D01*
X82423000Y-82080280D01*
X82677000Y-82080280D01*
X82677000Y-83693000D01*
X82697000Y-83693000D01*
X82697000Y-83947000D01*
X82677000Y-83947000D01*
X82677000Y-85559720D01*
X82893070Y-85682220D01*
X82967276Y-85667262D01*
X83220535Y-85560122D01*
X83448026Y-85405632D01*
X83641006Y-85209729D01*
X83792059Y-84979942D01*
X83818962Y-84913587D01*
X83922817Y-85107887D01*
X84097393Y-85320608D01*
X84310114Y-85495183D01*
X84552806Y-85624904D01*
X84816141Y-85704786D01*
X85090000Y-85731759D01*
X85363860Y-85704786D01*
X85627195Y-85624904D01*
X85869887Y-85495183D01*
X86082608Y-85320608D01*
X86257183Y-85107887D01*
X86360000Y-84915529D01*
X86462817Y-85107887D01*
X86637393Y-85320608D01*
X86850114Y-85495183D01*
X87092806Y-85624904D01*
X87356141Y-85704786D01*
X87630000Y-85731759D01*
X87903860Y-85704786D01*
X88167195Y-85624904D01*
X88409887Y-85495183D01*
X88622608Y-85320608D01*
X88797183Y-85107887D01*
X88926904Y-84865195D01*
X89006786Y-84601860D01*
X89027000Y-84396625D01*
X89027000Y-83243376D01*
X91313000Y-83243376D01*
X91313000Y-84396625D01*
X91333214Y-84601860D01*
X91413096Y-84865195D01*
X91542817Y-85107887D01*
X91717393Y-85320608D01*
X91930114Y-85495183D01*
X92172806Y-85624904D01*
X92436141Y-85704786D01*
X92710000Y-85731759D01*
X92983860Y-85704786D01*
X93247195Y-85624904D01*
X93489887Y-85495183D01*
X93702608Y-85320608D01*
X93877183Y-85107887D01*
X93980000Y-84915529D01*
X94082817Y-85107887D01*
X94257393Y-85320608D01*
X94470114Y-85495183D01*
X94712806Y-85624904D01*
X94976141Y-85704786D01*
X95250000Y-85731759D01*
X95523860Y-85704786D01*
X95787195Y-85624904D01*
X96029887Y-85495183D01*
X96242608Y-85320608D01*
X96417183Y-85107887D01*
X96520000Y-84915529D01*
X96622817Y-85107887D01*
X96797393Y-85320608D01*
X97010114Y-85495183D01*
X97252806Y-85624904D01*
X97516141Y-85704786D01*
X97790000Y-85731759D01*
X98063860Y-85704786D01*
X98327195Y-85624904D01*
X98569887Y-85495183D01*
X98782608Y-85320608D01*
X98957183Y-85107887D01*
X99060000Y-84915529D01*
X99162817Y-85107887D01*
X99337393Y-85320608D01*
X99550114Y-85495183D01*
X99792806Y-85624904D01*
X100056141Y-85704786D01*
X100330000Y-85731759D01*
X100603860Y-85704786D01*
X100867195Y-85624904D01*
X101109887Y-85495183D01*
X101322608Y-85320608D01*
X101497183Y-85107887D01*
X101600000Y-84915529D01*
X101702817Y-85107887D01*
X101877393Y-85320608D01*
X102090114Y-85495183D01*
X102332806Y-85624904D01*
X102596141Y-85704786D01*
X102870000Y-85731759D01*
X103143860Y-85704786D01*
X103407195Y-85624904D01*
X103649887Y-85495183D01*
X103862608Y-85320608D01*
X104037183Y-85107887D01*
X104140000Y-84915529D01*
X104242817Y-85107887D01*
X104417393Y-85320608D01*
X104630114Y-85495183D01*
X104872806Y-85624904D01*
X105136141Y-85704786D01*
X105410000Y-85731759D01*
X105683860Y-85704786D01*
X105947195Y-85624904D01*
X106189887Y-85495183D01*
X106402608Y-85320608D01*
X106577183Y-85107887D01*
X106706904Y-84865195D01*
X106786786Y-84601860D01*
X106807000Y-84396625D01*
X106807000Y-83243375D01*
X106786786Y-83038140D01*
X106706904Y-82774805D01*
X106577183Y-82532113D01*
X106402607Y-82319392D01*
X106189886Y-82144817D01*
X105947194Y-82015096D01*
X105683859Y-81935214D01*
X105410000Y-81908241D01*
X105136140Y-81935214D01*
X104872805Y-82015096D01*
X104630113Y-82144817D01*
X104417392Y-82319393D01*
X104242817Y-82532114D01*
X104140000Y-82724471D01*
X104037183Y-82532113D01*
X103862607Y-82319392D01*
X103649886Y-82144817D01*
X103407194Y-82015096D01*
X103143859Y-81935214D01*
X102870000Y-81908241D01*
X102596140Y-81935214D01*
X102336583Y-82013950D01*
X102367807Y-81975903D01*
X103565908Y-80777803D01*
X103605396Y-80745396D01*
X103640844Y-80702203D01*
X103734734Y-80587798D01*
X103786104Y-80491691D01*
X103830841Y-80407993D01*
X103890024Y-80212895D01*
X103905000Y-80060838D01*
X103905000Y-80060829D01*
X103910006Y-80010001D01*
X103905000Y-79959173D01*
X103905000Y-76049320D01*
X103949494Y-76025537D01*
X104046185Y-75946185D01*
X104125537Y-75849494D01*
X104184502Y-75739180D01*
X104220812Y-75619482D01*
X104233072Y-75495000D01*
X104233072Y-74365000D01*
X104220812Y-74240518D01*
X104184502Y-74120820D01*
X104125537Y-74010506D01*
X104065000Y-73936741D01*
X104065000Y-73000956D01*
X104093426Y-72958413D01*
X104183884Y-72740027D01*
X104230000Y-72508190D01*
X104230000Y-72271810D01*
X104183884Y-72039973D01*
X104093426Y-71821587D01*
X103962101Y-71625045D01*
X103794955Y-71457899D01*
X103598413Y-71326574D01*
X103380027Y-71236116D01*
X103148190Y-71190000D01*
X102911810Y-71190000D01*
X102679973Y-71236116D01*
X102461587Y-71326574D01*
X102265045Y-71457899D01*
X102097899Y-71625045D01*
X101966574Y-71821587D01*
X101876116Y-72039973D01*
X101830000Y-72271810D01*
X101830000Y-72508190D01*
X101876116Y-72740027D01*
X101966574Y-72958413D01*
X101995001Y-73000957D01*
X101995000Y-73936741D01*
X101934463Y-74010506D01*
X101875498Y-74120820D01*
X101839188Y-74240518D01*
X101826928Y-74365000D01*
X101826928Y-75495000D01*
X101835001Y-75576968D01*
X101835000Y-79581289D01*
X101171290Y-80245000D01*
X94030827Y-80245000D01*
X93979999Y-80239994D01*
X93929171Y-80245000D01*
X93929162Y-80245000D01*
X93777105Y-80259976D01*
X93582007Y-80319159D01*
X93498309Y-80363896D01*
X93402202Y-80415266D01*
X93284092Y-80512197D01*
X93244604Y-80544604D01*
X93212197Y-80584092D01*
X92014092Y-81782198D01*
X91974605Y-81814604D01*
X91942198Y-81854092D01*
X91942197Y-81854093D01*
X91845266Y-81972203D01*
X91749160Y-82152007D01*
X91689977Y-82347105D01*
X91689340Y-82353575D01*
X91542817Y-82532114D01*
X91413096Y-82774806D01*
X91333214Y-83038141D01*
X91313000Y-83243376D01*
X89027000Y-83243376D01*
X89027000Y-83243375D01*
X89006786Y-83038140D01*
X88926904Y-82774805D01*
X88797183Y-82532113D01*
X88622607Y-82319392D01*
X88409886Y-82144817D01*
X88167194Y-82015096D01*
X87903859Y-81935214D01*
X87630000Y-81908241D01*
X87356140Y-81935214D01*
X87092805Y-82015096D01*
X86850113Y-82144817D01*
X86637392Y-82319393D01*
X86462817Y-82532114D01*
X86360000Y-82724471D01*
X86257183Y-82532113D01*
X86082607Y-82319392D01*
X85869886Y-82144817D01*
X85627194Y-82015096D01*
X85363859Y-81935214D01*
X85090000Y-81908241D01*
X84816140Y-81935214D01*
X84552805Y-82015096D01*
X84310113Y-82144817D01*
X84097392Y-82319393D01*
X83922817Y-82532114D01*
X83818962Y-82726414D01*
X83792059Y-82660058D01*
X83641006Y-82430271D01*
X83448026Y-82234368D01*
X83220535Y-82079878D01*
X82967276Y-81972738D01*
X82893070Y-81957780D01*
X82677000Y-82080280D01*
X82423000Y-82080280D01*
X82206930Y-81957780D01*
X82132724Y-81972738D01*
X81879465Y-82079878D01*
X81651974Y-82234368D01*
X81458994Y-82430271D01*
X81307941Y-82660058D01*
X81281038Y-82726413D01*
X81177183Y-82532113D01*
X81002607Y-82319392D01*
X80789886Y-82144817D01*
X80547194Y-82015096D01*
X80283859Y-81935214D01*
X80010000Y-81908241D01*
X79736140Y-81935214D01*
X79472805Y-82015096D01*
X79230113Y-82144817D01*
X79017392Y-82319393D01*
X78842817Y-82532114D01*
X78740000Y-82724471D01*
X78637183Y-82532113D01*
X78505000Y-82371048D01*
X78505000Y-81708710D01*
X79168711Y-81045000D01*
X82499172Y-81045000D01*
X82550000Y-81050006D01*
X82600828Y-81045000D01*
X82600838Y-81045000D01*
X82752895Y-81030024D01*
X82947993Y-80970841D01*
X83127797Y-80874734D01*
X83285396Y-80745396D01*
X83317807Y-80705903D01*
X84515908Y-79507803D01*
X84555396Y-79475396D01*
X84590844Y-79432203D01*
X84684734Y-79317798D01*
X84736104Y-79221691D01*
X84780841Y-79137993D01*
X84840024Y-78942895D01*
X84855000Y-78790838D01*
X84855000Y-78790829D01*
X84860006Y-78740001D01*
X84855000Y-78689173D01*
X84855000Y-77194396D01*
X84934637Y-77114759D01*
X85091680Y-76879727D01*
X85199853Y-76618574D01*
X85255000Y-76341335D01*
X85255000Y-76058665D01*
X85236369Y-75965000D01*
X94479044Y-75965000D01*
X94521587Y-75993426D01*
X94739973Y-76083884D01*
X94971810Y-76130000D01*
X95208190Y-76130000D01*
X95440027Y-76083884D01*
X95658413Y-75993426D01*
X95854955Y-75862101D01*
X96022101Y-75694955D01*
X96153426Y-75498413D01*
X96243884Y-75280027D01*
X96290000Y-75048190D01*
X96290000Y-74811810D01*
X96243884Y-74579973D01*
X96153426Y-74361587D01*
X96022101Y-74165045D01*
X95854955Y-73997899D01*
X95658413Y-73866574D01*
X95440027Y-73776116D01*
X95208190Y-73730000D01*
X94971810Y-73730000D01*
X94739973Y-73776116D01*
X94521587Y-73866574D01*
X94479044Y-73895000D01*
X84855000Y-73895000D01*
X84855000Y-72271810D01*
X93890000Y-72271810D01*
X93890000Y-72508190D01*
X93936116Y-72740027D01*
X94026574Y-72958413D01*
X94157899Y-73154955D01*
X94325045Y-73322101D01*
X94521587Y-73453426D01*
X94739973Y-73543884D01*
X94971810Y-73590000D01*
X95208190Y-73590000D01*
X95440027Y-73543884D01*
X95658413Y-73453426D01*
X95854955Y-73322101D01*
X96022101Y-73154955D01*
X96153426Y-72958413D01*
X96243884Y-72740027D01*
X96290000Y-72508190D01*
X96290000Y-72271810D01*
X96243884Y-72039973D01*
X96153426Y-71821587D01*
X96022101Y-71625045D01*
X95854955Y-71457899D01*
X95658413Y-71326574D01*
X95440027Y-71236116D01*
X95208190Y-71190000D01*
X94971810Y-71190000D01*
X94739973Y-71236116D01*
X94521587Y-71326574D01*
X94325045Y-71457899D01*
X94157899Y-71625045D01*
X94026574Y-71821587D01*
X93936116Y-72039973D01*
X93890000Y-72271810D01*
X84855000Y-72271810D01*
X84855000Y-70037454D01*
X84914180Y-70019502D01*
X85024494Y-69960537D01*
X85121185Y-69881185D01*
X85200537Y-69784494D01*
X85228697Y-69731810D01*
X93890000Y-69731810D01*
X93890000Y-69968190D01*
X93936116Y-70200027D01*
X94026574Y-70418413D01*
X94157899Y-70614955D01*
X94325045Y-70782101D01*
X94521587Y-70913426D01*
X94739973Y-71003884D01*
X94971810Y-71050000D01*
X95208190Y-71050000D01*
X95440027Y-71003884D01*
X95658413Y-70913426D01*
X95854955Y-70782101D01*
X96022101Y-70614955D01*
X96153426Y-70418413D01*
X96243884Y-70200027D01*
X96290000Y-69968190D01*
X96290000Y-69731810D01*
X96243884Y-69499973D01*
X96153426Y-69281587D01*
X96022101Y-69085045D01*
X95854955Y-68917899D01*
X95658413Y-68786574D01*
X95440027Y-68696116D01*
X95208190Y-68650000D01*
X94971810Y-68650000D01*
X94739973Y-68696116D01*
X94521587Y-68786574D01*
X94325045Y-68917899D01*
X94157899Y-69085045D01*
X94026574Y-69281587D01*
X93936116Y-69499973D01*
X93890000Y-69731810D01*
X85228697Y-69731810D01*
X85259502Y-69674180D01*
X85295812Y-69554482D01*
X85308072Y-69430000D01*
X85308072Y-67730000D01*
X85295812Y-67605518D01*
X85259502Y-67485820D01*
X85200537Y-67375506D01*
X85121185Y-67278815D01*
X85024494Y-67199463D01*
X85010177Y-67191810D01*
X93890000Y-67191810D01*
X93890000Y-67428190D01*
X93936116Y-67660027D01*
X94026574Y-67878413D01*
X94157899Y-68074955D01*
X94325045Y-68242101D01*
X94521587Y-68373426D01*
X94739973Y-68463884D01*
X94971810Y-68510000D01*
X95208190Y-68510000D01*
X95440027Y-68463884D01*
X95658413Y-68373426D01*
X95854955Y-68242101D01*
X96022101Y-68074955D01*
X96153426Y-67878413D01*
X96243884Y-67660027D01*
X96290000Y-67428190D01*
X96290000Y-67191810D01*
X96243884Y-66959973D01*
X96153426Y-66741587D01*
X96022101Y-66545045D01*
X95854955Y-66377899D01*
X95658413Y-66246574D01*
X95440027Y-66156116D01*
X95208190Y-66110000D01*
X94971810Y-66110000D01*
X94739973Y-66156116D01*
X94521587Y-66246574D01*
X94325045Y-66377899D01*
X94157899Y-66545045D01*
X94026574Y-66741587D01*
X93936116Y-66959973D01*
X93890000Y-67191810D01*
X85010177Y-67191810D01*
X84914180Y-67140498D01*
X84841620Y-67118487D01*
X84885107Y-67075000D01*
X92659172Y-67075000D01*
X92710000Y-67080006D01*
X92760828Y-67075000D01*
X92760838Y-67075000D01*
X92912895Y-67060024D01*
X93107993Y-67000841D01*
X93287797Y-66904734D01*
X93445396Y-66775396D01*
X93477807Y-66735903D01*
X94408711Y-65805000D01*
X96091290Y-65805000D01*
X100832197Y-70545908D01*
X100864604Y-70585396D01*
X100904092Y-70617803D01*
X101022202Y-70714734D01*
X101118309Y-70766104D01*
X101202007Y-70810841D01*
X101397105Y-70870024D01*
X101549162Y-70885000D01*
X101549164Y-70885000D01*
X101600000Y-70890007D01*
X101650835Y-70885000D01*
X102419044Y-70885000D01*
X102461587Y-70913426D01*
X102679973Y-71003884D01*
X102911810Y-71050000D01*
X103148190Y-71050000D01*
X103380027Y-71003884D01*
X103598413Y-70913426D01*
X103640956Y-70885000D01*
X104089172Y-70885000D01*
X104140000Y-70890006D01*
X104190828Y-70885000D01*
X104190838Y-70885000D01*
X104342895Y-70870024D01*
X104537993Y-70810841D01*
X104717797Y-70714734D01*
X104875396Y-70585396D01*
X104907807Y-70545903D01*
X107375908Y-68077803D01*
X107415396Y-68045396D01*
X107450844Y-68002202D01*
X107544734Y-67887798D01*
X107629078Y-67730000D01*
X107640841Y-67707993D01*
X107700024Y-67512895D01*
X107715000Y-67360838D01*
X107715000Y-67360829D01*
X107720006Y-67310001D01*
X107715000Y-67259173D01*
X107715000Y-64494396D01*
X107794637Y-64414759D01*
X107951680Y-64179727D01*
X108059853Y-63918574D01*
X108115000Y-63641335D01*
X108115000Y-63358665D01*
X108059853Y-63081426D01*
X107951680Y-62820273D01*
X107794637Y-62585241D01*
X107594759Y-62385363D01*
X107359727Y-62228320D01*
X107098574Y-62120147D01*
X106821335Y-62065000D01*
X106538665Y-62065000D01*
X106261426Y-62120147D01*
X106000273Y-62228320D01*
X105765241Y-62385363D01*
X105565363Y-62585241D01*
X105408320Y-62820273D01*
X105300147Y-63081426D01*
X105245000Y-63358665D01*
X105245000Y-63641335D01*
X105300147Y-63918574D01*
X105408320Y-64179727D01*
X105565363Y-64414759D01*
X105645001Y-64494397D01*
X105645000Y-66881289D01*
X103711290Y-68815000D01*
X103640956Y-68815000D01*
X103598413Y-68786574D01*
X103380027Y-68696116D01*
X103148190Y-68650000D01*
X102911810Y-68650000D01*
X102679973Y-68696116D01*
X102461587Y-68786574D01*
X102419044Y-68815000D01*
X102028711Y-68815000D01*
X101348427Y-68134716D01*
X102384889Y-68134716D01*
X102427933Y-68354740D01*
X102643320Y-68452123D01*
X102873567Y-68505615D01*
X103109826Y-68513160D01*
X103343017Y-68474468D01*
X103564179Y-68391027D01*
X103632067Y-68354740D01*
X103675111Y-68134716D01*
X103030000Y-67489605D01*
X102384889Y-68134716D01*
X101348427Y-68134716D01*
X100603537Y-67389826D01*
X101826840Y-67389826D01*
X101865532Y-67623017D01*
X101948973Y-67844179D01*
X101985260Y-67912067D01*
X102205284Y-67955111D01*
X102850395Y-67310000D01*
X103209605Y-67310000D01*
X103854716Y-67955111D01*
X104074740Y-67912067D01*
X104172123Y-67696680D01*
X104225615Y-67466433D01*
X104233160Y-67230174D01*
X104194468Y-66996983D01*
X104111027Y-66775821D01*
X104074740Y-66707933D01*
X103854716Y-66664889D01*
X103209605Y-67310000D01*
X102850395Y-67310000D01*
X102205284Y-66664889D01*
X101985260Y-66707933D01*
X101887877Y-66923320D01*
X101834385Y-67153567D01*
X101826840Y-67389826D01*
X100603537Y-67389826D01*
X99698995Y-66485284D01*
X102384889Y-66485284D01*
X103030000Y-67130395D01*
X103675111Y-66485284D01*
X103632067Y-66265260D01*
X103416680Y-66167877D01*
X103186433Y-66114385D01*
X102950174Y-66106840D01*
X102716983Y-66145532D01*
X102495821Y-66228973D01*
X102427933Y-66265260D01*
X102384889Y-66485284D01*
X99698995Y-66485284D01*
X97287807Y-64074097D01*
X97255396Y-64034604D01*
X97097797Y-63905266D01*
X96917993Y-63809159D01*
X96722895Y-63749976D01*
X96570838Y-63735000D01*
X96570828Y-63735000D01*
X96520000Y-63729994D01*
X96469172Y-63735000D01*
X94030827Y-63735000D01*
X93979999Y-63729994D01*
X93929171Y-63735000D01*
X93929162Y-63735000D01*
X93777105Y-63749976D01*
X93582007Y-63809159D01*
X93498309Y-63853896D01*
X93402202Y-63905266D01*
X93284092Y-64002197D01*
X93244604Y-64034604D01*
X93212197Y-64074092D01*
X92281290Y-65005000D01*
X84885107Y-65005000D01*
X84766632Y-64886525D01*
X84523411Y-64724010D01*
X84253158Y-64612068D01*
X83966260Y-64555000D01*
X83673740Y-64555000D01*
X83386842Y-64612068D01*
X83116589Y-64724010D01*
X82873368Y-64886525D01*
X82666525Y-65093368D01*
X82504010Y-65336589D01*
X82392068Y-65606842D01*
X82335000Y-65893740D01*
X82335000Y-66186260D01*
X82392068Y-66473158D01*
X82504010Y-66743411D01*
X82666525Y-66986632D01*
X82798380Y-67118487D01*
X82725820Y-67140498D01*
X82627019Y-67193309D01*
X82315000Y-66881290D01*
X82315000Y-63928710D01*
X84248711Y-61995000D01*
X87579172Y-61995000D01*
X87630000Y-62000006D01*
X87680828Y-61995000D01*
X87680838Y-61995000D01*
X87832895Y-61980024D01*
X88027993Y-61920841D01*
X88207797Y-61824734D01*
X88365396Y-61695396D01*
X88397807Y-61655903D01*
X93824670Y-56229040D01*
X105288091Y-56229040D01*
X105382930Y-56493881D01*
X105527615Y-56735131D01*
X105716586Y-56943519D01*
X105942580Y-57111037D01*
X106196913Y-57231246D01*
X106330961Y-57271904D01*
X106553000Y-57149915D01*
X106553000Y-56007000D01*
X106807000Y-56007000D01*
X106807000Y-57149915D01*
X107029039Y-57271904D01*
X107163087Y-57231246D01*
X107417420Y-57111037D01*
X107643414Y-56943519D01*
X107832385Y-56735131D01*
X107977070Y-56493881D01*
X108071909Y-56229040D01*
X107950624Y-56007000D01*
X106807000Y-56007000D01*
X106553000Y-56007000D01*
X105409376Y-56007000D01*
X105288091Y-56229040D01*
X93824670Y-56229040D01*
X94522750Y-55530960D01*
X105288091Y-55530960D01*
X105409376Y-55753000D01*
X106553000Y-55753000D01*
X106553000Y-54610085D01*
X106807000Y-54610085D01*
X106807000Y-55753000D01*
X107950624Y-55753000D01*
X108071909Y-55530960D01*
X107977070Y-55266119D01*
X107832385Y-55024869D01*
X107643414Y-54816481D01*
X107417420Y-54648963D01*
X107163087Y-54528754D01*
X107029039Y-54488096D01*
X106807000Y-54610085D01*
X106553000Y-54610085D01*
X106330961Y-54488096D01*
X106196913Y-54528754D01*
X105942580Y-54648963D01*
X105716586Y-54816481D01*
X105527615Y-55024869D01*
X105382930Y-55266119D01*
X105288091Y-55530960D01*
X94522750Y-55530960D01*
X97818711Y-52235000D01*
X97931335Y-52235000D01*
X98208574Y-52179853D01*
X98469727Y-52071680D01*
X98704759Y-51914637D01*
X98904637Y-51714759D01*
X99061680Y-51479727D01*
X99169853Y-51218574D01*
X99225000Y-50941335D01*
X99225000Y-50658665D01*
X99169853Y-50381426D01*
X99061680Y-50120273D01*
X98904637Y-49885241D01*
X98704759Y-49685363D01*
X98469727Y-49528320D01*
X98208574Y-49420147D01*
X97931335Y-49365000D01*
X97648665Y-49365000D01*
X97371426Y-49420147D01*
X97110273Y-49528320D01*
X96875241Y-49685363D01*
X96675363Y-49885241D01*
X96518320Y-50120273D01*
X96410147Y-50381426D01*
X96355000Y-50658665D01*
X96355000Y-50771289D01*
X87201290Y-59925000D01*
X83870827Y-59925000D01*
X83819999Y-59919994D01*
X83769171Y-59925000D01*
X83769162Y-59925000D01*
X83617105Y-59939976D01*
X83422007Y-59999159D01*
X83338309Y-60043896D01*
X83242202Y-60095266D01*
X83124092Y-60192197D01*
X83084604Y-60224604D01*
X83052197Y-60264092D01*
X80584092Y-62732198D01*
X80544605Y-62764604D01*
X80512198Y-62804092D01*
X80512197Y-62804093D01*
X80415266Y-62922203D01*
X80319160Y-63102007D01*
X80259977Y-63297105D01*
X80239994Y-63500000D01*
X80245001Y-63550838D01*
X80245000Y-67259172D01*
X80239994Y-67310000D01*
X80245000Y-67360828D01*
X80245000Y-67360837D01*
X80259976Y-67512894D01*
X80319159Y-67707992D01*
X80415266Y-67887797D01*
X80544604Y-68045396D01*
X80584097Y-68077807D01*
X81782197Y-69275908D01*
X81814604Y-69315396D01*
X81854092Y-69347803D01*
X81972202Y-69444734D01*
X82068309Y-69496104D01*
X82152007Y-69540841D01*
X82347105Y-69600024D01*
X82358339Y-69601130D01*
X82380498Y-69674180D01*
X82439463Y-69784494D01*
X82518815Y-69881185D01*
X82615506Y-69960537D01*
X82725820Y-70019502D01*
X82785001Y-70037454D01*
X82785000Y-74879162D01*
X82779993Y-74930000D01*
X82785001Y-74980847D01*
X82785001Y-75205603D01*
X82705363Y-75285241D01*
X82548320Y-75520273D01*
X82440147Y-75781426D01*
X82385000Y-76058665D01*
X82385000Y-76341335D01*
X82440147Y-76618574D01*
X82548320Y-76879727D01*
X82705363Y-77114759D01*
X82785001Y-77194397D01*
X82785000Y-78311289D01*
X82121290Y-78975000D01*
X78790827Y-78975000D01*
X78739999Y-78969994D01*
X78689171Y-78975000D01*
X78689162Y-78975000D01*
X78537105Y-78989976D01*
X78342007Y-79049159D01*
X78258309Y-79093896D01*
X78162202Y-79145266D01*
X78044092Y-79242197D01*
X78004604Y-79274604D01*
X77972197Y-79314092D01*
X77597000Y-79689289D01*
X77597000Y-76532371D01*
X77635000Y-76341335D01*
X77635000Y-76058665D01*
X77597000Y-75867629D01*
X77597000Y-67067499D01*
X77672895Y-67060024D01*
X77867993Y-67000841D01*
X78047797Y-66904734D01*
X78205396Y-66775396D01*
X78237807Y-66735903D01*
X79435908Y-65537803D01*
X79475396Y-65505396D01*
X79526078Y-65443640D01*
X79604734Y-65347798D01*
X79663724Y-65237434D01*
X79700841Y-65167993D01*
X79760024Y-64972895D01*
X79775000Y-64820838D01*
X79775000Y-64820829D01*
X79780006Y-64770001D01*
X79775000Y-64719173D01*
X79775000Y-62658710D01*
X84515908Y-57917803D01*
X84555396Y-57885396D01*
X84587803Y-57845908D01*
X84684734Y-57727798D01*
X84780840Y-57547994D01*
X84780841Y-57547993D01*
X84840024Y-57352895D01*
X84855000Y-57200838D01*
X84855000Y-57200836D01*
X84860007Y-57150000D01*
X84855000Y-57099165D01*
X84855000Y-51892683D01*
X84924494Y-51855537D01*
X85021185Y-51776185D01*
X85100537Y-51679494D01*
X85159502Y-51569180D01*
X85195812Y-51449482D01*
X85208072Y-51325000D01*
X85208072Y-50565000D01*
X87201290Y-50565000D01*
X88132197Y-51495908D01*
X88164604Y-51535396D01*
X88204092Y-51567803D01*
X88322202Y-51664734D01*
X88415793Y-51714759D01*
X88502007Y-51760841D01*
X88697105Y-51820024D01*
X88849162Y-51835000D01*
X88849171Y-51835000D01*
X88899999Y-51840006D01*
X88950827Y-51835000D01*
X91715604Y-51835000D01*
X91795241Y-51914637D01*
X92030273Y-52071680D01*
X92291426Y-52179853D01*
X92568665Y-52235000D01*
X92851335Y-52235000D01*
X93128574Y-52179853D01*
X93389727Y-52071680D01*
X93624759Y-51914637D01*
X93824637Y-51714759D01*
X93981680Y-51479727D01*
X94089853Y-51218574D01*
X94145000Y-50941335D01*
X94145000Y-50658665D01*
X94089853Y-50381426D01*
X93981680Y-50120273D01*
X93824637Y-49885241D01*
X93624759Y-49685363D01*
X93389727Y-49528320D01*
X93128574Y-49420147D01*
X92851335Y-49365000D01*
X92568665Y-49365000D01*
X92291426Y-49420147D01*
X92030273Y-49528320D01*
X91795241Y-49685363D01*
X91715604Y-49765000D01*
X89328711Y-49765000D01*
X88397807Y-48834097D01*
X88365396Y-48794604D01*
X88207797Y-48665266D01*
X88027993Y-48569159D01*
X87832895Y-48509976D01*
X87680838Y-48495000D01*
X87680828Y-48495000D01*
X87630000Y-48489994D01*
X87579172Y-48495000D01*
X85114146Y-48495000D01*
X85038163Y-48387000D01*
X84273109Y-48387000D01*
X84272400Y-48386785D01*
X84101979Y-48370000D01*
X83538021Y-48370000D01*
X83367600Y-48386785D01*
X83366891Y-48387000D01*
X82601837Y-48387000D01*
X82476036Y-48565810D01*
X82484728Y-48627337D01*
X82577725Y-48836882D01*
X82618929Y-48895331D01*
X82518115Y-49083940D01*
X82451785Y-49302600D01*
X82429388Y-49530000D01*
X82451785Y-49757400D01*
X82515093Y-49966098D01*
X82480498Y-50030820D01*
X82444188Y-50150518D01*
X82431928Y-50275000D01*
X82431928Y-51325000D01*
X82444188Y-51449482D01*
X82480498Y-51569180D01*
X82539463Y-51679494D01*
X82618815Y-51776185D01*
X82715506Y-51855537D01*
X82785000Y-51892683D01*
X82785001Y-56721288D01*
X78044097Y-61462193D01*
X78004604Y-61494604D01*
X77875266Y-61652203D01*
X77779159Y-61832008D01*
X77719976Y-62027106D01*
X77705000Y-62179163D01*
X77705000Y-62179172D01*
X77699994Y-62230000D01*
X77705000Y-62280828D01*
X77705001Y-64341288D01*
X77597000Y-64449289D01*
X77597000Y-55880000D01*
X77594560Y-55855224D01*
X77587333Y-55831399D01*
X77575597Y-55809443D01*
X77559803Y-55790197D01*
X75057000Y-53287394D01*
X75057000Y-49673407D01*
X75105820Y-49699502D01*
X75225518Y-49735812D01*
X75350000Y-49748072D01*
X75914250Y-49745000D01*
X76073000Y-49586250D01*
X76073000Y-48387000D01*
X76327000Y-48387000D01*
X76327000Y-49586250D01*
X76485750Y-49745000D01*
X77050000Y-49748072D01*
X77174482Y-49735812D01*
X77294180Y-49699502D01*
X77404494Y-49640537D01*
X77501185Y-49561185D01*
X77580537Y-49464494D01*
X77639502Y-49354180D01*
X77675812Y-49234482D01*
X77688072Y-49110000D01*
X77685000Y-48545750D01*
X77526250Y-48387000D01*
X76327000Y-48387000D01*
X76073000Y-48387000D01*
X76053000Y-48387000D01*
X76053000Y-48133000D01*
X76073000Y-48133000D01*
X76073000Y-48113000D01*
X76327000Y-48113000D01*
X76327000Y-48133000D01*
X77526250Y-48133000D01*
X77685000Y-47974250D01*
X77685109Y-47954190D01*
X82476036Y-47954190D01*
X82601837Y-48133000D01*
X83693000Y-48133000D01*
X83693000Y-47253402D01*
X83947000Y-47253402D01*
X83947000Y-48133000D01*
X85038163Y-48133000D01*
X85163964Y-47954190D01*
X85155272Y-47892663D01*
X85062275Y-47683118D01*
X84930184Y-47495742D01*
X84764076Y-47337736D01*
X84570334Y-47215172D01*
X84356404Y-47132761D01*
X84130507Y-47093669D01*
X83947000Y-47253402D01*
X83693000Y-47253402D01*
X83509493Y-47093669D01*
X83283596Y-47132761D01*
X83069666Y-47215172D01*
X82875924Y-47337736D01*
X82709816Y-47495742D01*
X82577725Y-47683118D01*
X82484728Y-47892663D01*
X82476036Y-47954190D01*
X77685109Y-47954190D01*
X77688072Y-47410000D01*
X77675812Y-47285518D01*
X77639502Y-47165820D01*
X77580537Y-47055506D01*
X77501185Y-46958815D01*
X77404494Y-46879463D01*
X77294180Y-46820498D01*
X77221620Y-46798487D01*
X77265107Y-46755000D01*
X95199172Y-46755000D01*
X95250000Y-46760006D01*
X95300828Y-46755000D01*
X95300838Y-46755000D01*
X95452895Y-46740024D01*
X95647993Y-46680841D01*
X95827797Y-46584734D01*
X95985396Y-46455396D01*
X96017807Y-46415903D01*
X97818711Y-44615000D01*
X97931335Y-44615000D01*
X98208574Y-44559853D01*
X98469727Y-44451680D01*
X98704759Y-44294637D01*
X98904637Y-44094759D01*
X99061680Y-43859727D01*
X99169853Y-43598574D01*
X99225000Y-43321335D01*
X99225000Y-43208710D01*
X101025908Y-41407803D01*
X101065396Y-41375396D01*
X101097803Y-41335908D01*
X101194734Y-41217798D01*
X101290840Y-41037994D01*
X101290841Y-41037993D01*
X101350024Y-40842895D01*
X101365000Y-40690838D01*
X101365000Y-40690829D01*
X101370006Y-40640001D01*
X101365000Y-40589173D01*
X101365000Y-37008953D01*
X101497183Y-36847887D01*
X101600000Y-36655529D01*
X101702817Y-36847887D01*
X101877393Y-37060608D01*
X102090114Y-37235183D01*
X102332806Y-37364904D01*
X102596141Y-37444786D01*
X102870000Y-37471759D01*
X103143860Y-37444786D01*
X103407195Y-37364904D01*
X103649887Y-37235183D01*
X103862608Y-37060608D01*
X104037183Y-36847887D01*
X104140000Y-36655529D01*
X104242817Y-36847887D01*
X104417393Y-37060608D01*
X104630114Y-37235183D01*
X104872806Y-37364904D01*
X105136141Y-37444786D01*
X105410000Y-37471759D01*
X105683860Y-37444786D01*
X105947195Y-37364904D01*
X106189887Y-37235183D01*
X106402608Y-37060608D01*
X106577183Y-36847887D01*
X106706904Y-36605195D01*
X106786786Y-36341860D01*
X106807000Y-36136625D01*
X106807000Y-34983375D01*
X106786786Y-34778140D01*
X106706904Y-34514805D01*
X106577183Y-34272113D01*
X106402607Y-34059392D01*
X106189886Y-33884817D01*
X105947194Y-33755096D01*
X105683859Y-33675214D01*
X105410000Y-33648241D01*
X105136140Y-33675214D01*
X104872805Y-33755096D01*
X104630113Y-33884817D01*
X104417392Y-34059393D01*
X104242817Y-34272114D01*
X104140000Y-34464471D01*
X104037183Y-34272113D01*
X103862607Y-34059392D01*
X103649886Y-33884817D01*
X103407194Y-33755096D01*
X103143859Y-33675214D01*
X102870000Y-33648241D01*
X102596140Y-33675214D01*
X102332805Y-33755096D01*
X102090113Y-33884817D01*
X101877392Y-34059393D01*
X101702817Y-34272114D01*
X101600000Y-34464471D01*
X101497183Y-34272113D01*
X101322607Y-34059392D01*
X101109886Y-33884817D01*
X100867194Y-33755096D01*
X100603859Y-33675214D01*
X100330000Y-33648241D01*
X100056140Y-33675214D01*
X99792805Y-33755096D01*
X99550113Y-33884817D01*
X99337392Y-34059393D01*
X99162817Y-34272114D01*
X99060000Y-34464471D01*
X98957183Y-34272113D01*
X98782607Y-34059392D01*
X98569886Y-33884817D01*
X98327194Y-33755096D01*
X98063859Y-33675214D01*
X97790000Y-33648241D01*
X97516140Y-33675214D01*
X97252805Y-33755096D01*
X97010113Y-33884817D01*
X96797392Y-34059393D01*
X96622817Y-34272114D01*
X96520000Y-34464471D01*
X96417183Y-34272113D01*
X96242607Y-34059392D01*
X96029886Y-33884817D01*
X95787194Y-33755096D01*
X95523859Y-33675214D01*
X95250000Y-33648241D01*
X94976140Y-33675214D01*
X94712805Y-33755096D01*
X94470113Y-33884817D01*
X94257392Y-34059393D01*
X94082817Y-34272114D01*
X93980000Y-34464471D01*
X93877183Y-34272113D01*
X93702607Y-34059392D01*
X93489886Y-33884817D01*
X93247194Y-33755096D01*
X92983859Y-33675214D01*
X92710000Y-33648241D01*
X92436140Y-33675214D01*
X92172805Y-33755096D01*
X91930113Y-33884817D01*
X91717392Y-34059393D01*
X91542817Y-34272114D01*
X91440000Y-34464471D01*
X91337183Y-34272113D01*
X91162607Y-34059392D01*
X90949886Y-33884817D01*
X90707194Y-33755096D01*
X90443859Y-33675214D01*
X90170000Y-33648241D01*
X89896140Y-33675214D01*
X89632805Y-33755096D01*
X89390113Y-33884817D01*
X89177392Y-34059393D01*
X89002817Y-34272114D01*
X88900000Y-34464471D01*
X88797183Y-34272113D01*
X88622607Y-34059392D01*
X88409886Y-33884817D01*
X88167194Y-33755096D01*
X87903859Y-33675214D01*
X87630000Y-33648241D01*
X87356140Y-33675214D01*
X87092805Y-33755096D01*
X86850113Y-33884817D01*
X86637392Y-34059393D01*
X86462817Y-34272114D01*
X86333096Y-34514806D01*
X86253214Y-34778141D01*
X86233000Y-34983376D01*
X86233000Y-36136625D01*
X86253214Y-36341860D01*
X86333096Y-36605195D01*
X86462817Y-36847887D01*
X86637393Y-37060608D01*
X86850114Y-37235183D01*
X87092806Y-37364904D01*
X87356141Y-37444786D01*
X87630000Y-37471759D01*
X87903860Y-37444786D01*
X88167195Y-37364904D01*
X88409887Y-37235183D01*
X88622608Y-37060608D01*
X88797183Y-36847887D01*
X88900000Y-36655529D01*
X89002817Y-36847887D01*
X89177393Y-37060608D01*
X89390114Y-37235183D01*
X89632806Y-37364904D01*
X89896141Y-37444786D01*
X90170000Y-37471759D01*
X90443860Y-37444786D01*
X90707195Y-37364904D01*
X90949887Y-37235183D01*
X91162608Y-37060608D01*
X91337183Y-36847887D01*
X91440000Y-36655529D01*
X91542817Y-36847887D01*
X91717393Y-37060608D01*
X91930114Y-37235183D01*
X92172806Y-37364904D01*
X92436141Y-37444786D01*
X92710000Y-37471759D01*
X92983860Y-37444786D01*
X93247195Y-37364904D01*
X93489887Y-37235183D01*
X93702608Y-37060608D01*
X93877183Y-36847887D01*
X93980000Y-36655529D01*
X94082817Y-36847887D01*
X94257393Y-37060608D01*
X94470114Y-37235183D01*
X94712806Y-37364904D01*
X94976141Y-37444786D01*
X95250000Y-37471759D01*
X95523860Y-37444786D01*
X95787195Y-37364904D01*
X96029887Y-37235183D01*
X96242608Y-37060608D01*
X96417183Y-36847887D01*
X96520000Y-36655529D01*
X96622817Y-36847887D01*
X96755001Y-37008953D01*
X96755001Y-37671288D01*
X92681290Y-41745000D01*
X92568665Y-41745000D01*
X92291426Y-41800147D01*
X92030273Y-41908320D01*
X91795241Y-42065363D01*
X91595363Y-42265241D01*
X91438320Y-42500273D01*
X91330147Y-42761426D01*
X91275000Y-43038665D01*
X91275000Y-43321335D01*
X91330147Y-43598574D01*
X91438320Y-43859727D01*
X91595363Y-44094759D01*
X91795241Y-44294637D01*
X92030273Y-44451680D01*
X92291426Y-44559853D01*
X92568665Y-44615000D01*
X92851335Y-44615000D01*
X93128574Y-44559853D01*
X93389727Y-44451680D01*
X93624759Y-44294637D01*
X93824637Y-44094759D01*
X93981680Y-43859727D01*
X94089853Y-43598574D01*
X94145000Y-43321335D01*
X94145000Y-43208710D01*
X98485908Y-38867803D01*
X98525396Y-38835396D01*
X98557803Y-38795908D01*
X98654734Y-38677798D01*
X98750840Y-38497994D01*
X98750841Y-38497993D01*
X98810024Y-38302895D01*
X98825000Y-38150838D01*
X98825000Y-38150836D01*
X98830007Y-38100000D01*
X98825000Y-38049165D01*
X98825000Y-37008953D01*
X98957183Y-36847887D01*
X99060000Y-36655529D01*
X99162817Y-36847887D01*
X99295000Y-37008952D01*
X99295001Y-40211288D01*
X97761290Y-41745000D01*
X97648665Y-41745000D01*
X97371426Y-41800147D01*
X97110273Y-41908320D01*
X96875241Y-42065363D01*
X96675363Y-42265241D01*
X96518320Y-42500273D01*
X96410147Y-42761426D01*
X96355000Y-43038665D01*
X96355000Y-43151289D01*
X94821290Y-44685000D01*
X77265107Y-44685000D01*
X77146632Y-44566525D01*
X76903411Y-44404010D01*
X76633158Y-44292068D01*
X76346260Y-44235000D01*
X76053740Y-44235000D01*
X75766842Y-44292068D01*
X75496589Y-44404010D01*
X75253368Y-44566525D01*
X75057000Y-44762893D01*
X75057000Y-33147000D01*
X106627394Y-33147000D01*
X107823000Y-34342606D01*
%TA.AperFunction,Conductor*%
D29*
G36*
X107823000Y-34342606D02*
G01*
X107823000Y-45720000D01*
X107825440Y-45744776D01*
X107832667Y-45768601D01*
X107844403Y-45790557D01*
X107860197Y-45809803D01*
X110363000Y-48312606D01*
X110363000Y-81227394D01*
X107860197Y-83730197D01*
X107844403Y-83749443D01*
X107832667Y-83771399D01*
X107825440Y-83795224D01*
X107823000Y-83820000D01*
X107823000Y-86233000D01*
X77597000Y-86233000D01*
X77597000Y-85719251D01*
X77743860Y-85704786D01*
X78007195Y-85624904D01*
X78249887Y-85495183D01*
X78462608Y-85320608D01*
X78637183Y-85107887D01*
X78740000Y-84915529D01*
X78842817Y-85107887D01*
X79017393Y-85320608D01*
X79230114Y-85495183D01*
X79472806Y-85624904D01*
X79736141Y-85704786D01*
X80010000Y-85731759D01*
X80283860Y-85704786D01*
X80547195Y-85624904D01*
X80789887Y-85495183D01*
X81002608Y-85320608D01*
X81177183Y-85107887D01*
X81281038Y-84913587D01*
X81307941Y-84979942D01*
X81458994Y-85209729D01*
X81651974Y-85405632D01*
X81879465Y-85560122D01*
X82132724Y-85667262D01*
X82206930Y-85682220D01*
X82423000Y-85559720D01*
X82423000Y-83947000D01*
X82403000Y-83947000D01*
X82403000Y-83693000D01*
X82423000Y-83693000D01*
X82423000Y-82080280D01*
X82677000Y-82080280D01*
X82677000Y-83693000D01*
X82697000Y-83693000D01*
X82697000Y-83947000D01*
X82677000Y-83947000D01*
X82677000Y-85559720D01*
X82893070Y-85682220D01*
X82967276Y-85667262D01*
X83220535Y-85560122D01*
X83448026Y-85405632D01*
X83641006Y-85209729D01*
X83792059Y-84979942D01*
X83818962Y-84913587D01*
X83922817Y-85107887D01*
X84097393Y-85320608D01*
X84310114Y-85495183D01*
X84552806Y-85624904D01*
X84816141Y-85704786D01*
X85090000Y-85731759D01*
X85363860Y-85704786D01*
X85627195Y-85624904D01*
X85869887Y-85495183D01*
X86082608Y-85320608D01*
X86257183Y-85107887D01*
X86360000Y-84915529D01*
X86462817Y-85107887D01*
X86637393Y-85320608D01*
X86850114Y-85495183D01*
X87092806Y-85624904D01*
X87356141Y-85704786D01*
X87630000Y-85731759D01*
X87903860Y-85704786D01*
X88167195Y-85624904D01*
X88409887Y-85495183D01*
X88622608Y-85320608D01*
X88797183Y-85107887D01*
X88926904Y-84865195D01*
X89006786Y-84601860D01*
X89027000Y-84396625D01*
X89027000Y-83243376D01*
X91313000Y-83243376D01*
X91313000Y-84396625D01*
X91333214Y-84601860D01*
X91413096Y-84865195D01*
X91542817Y-85107887D01*
X91717393Y-85320608D01*
X91930114Y-85495183D01*
X92172806Y-85624904D01*
X92436141Y-85704786D01*
X92710000Y-85731759D01*
X92983860Y-85704786D01*
X93247195Y-85624904D01*
X93489887Y-85495183D01*
X93702608Y-85320608D01*
X93877183Y-85107887D01*
X93980000Y-84915529D01*
X94082817Y-85107887D01*
X94257393Y-85320608D01*
X94470114Y-85495183D01*
X94712806Y-85624904D01*
X94976141Y-85704786D01*
X95250000Y-85731759D01*
X95523860Y-85704786D01*
X95787195Y-85624904D01*
X96029887Y-85495183D01*
X96242608Y-85320608D01*
X96417183Y-85107887D01*
X96520000Y-84915529D01*
X96622817Y-85107887D01*
X96797393Y-85320608D01*
X97010114Y-85495183D01*
X97252806Y-85624904D01*
X97516141Y-85704786D01*
X97790000Y-85731759D01*
X98063860Y-85704786D01*
X98327195Y-85624904D01*
X98569887Y-85495183D01*
X98782608Y-85320608D01*
X98957183Y-85107887D01*
X99060000Y-84915529D01*
X99162817Y-85107887D01*
X99337393Y-85320608D01*
X99550114Y-85495183D01*
X99792806Y-85624904D01*
X100056141Y-85704786D01*
X100330000Y-85731759D01*
X100603860Y-85704786D01*
X100867195Y-85624904D01*
X101109887Y-85495183D01*
X101322608Y-85320608D01*
X101497183Y-85107887D01*
X101600000Y-84915529D01*
X101702817Y-85107887D01*
X101877393Y-85320608D01*
X102090114Y-85495183D01*
X102332806Y-85624904D01*
X102596141Y-85704786D01*
X102870000Y-85731759D01*
X103143860Y-85704786D01*
X103407195Y-85624904D01*
X103649887Y-85495183D01*
X103862608Y-85320608D01*
X104037183Y-85107887D01*
X104140000Y-84915529D01*
X104242817Y-85107887D01*
X104417393Y-85320608D01*
X104630114Y-85495183D01*
X104872806Y-85624904D01*
X105136141Y-85704786D01*
X105410000Y-85731759D01*
X105683860Y-85704786D01*
X105947195Y-85624904D01*
X106189887Y-85495183D01*
X106402608Y-85320608D01*
X106577183Y-85107887D01*
X106706904Y-84865195D01*
X106786786Y-84601860D01*
X106807000Y-84396625D01*
X106807000Y-83243375D01*
X106786786Y-83038140D01*
X106706904Y-82774805D01*
X106577183Y-82532113D01*
X106402607Y-82319392D01*
X106189886Y-82144817D01*
X105947194Y-82015096D01*
X105683859Y-81935214D01*
X105410000Y-81908241D01*
X105136140Y-81935214D01*
X104872805Y-82015096D01*
X104630113Y-82144817D01*
X104417392Y-82319393D01*
X104242817Y-82532114D01*
X104140000Y-82724471D01*
X104037183Y-82532113D01*
X103862607Y-82319392D01*
X103649886Y-82144817D01*
X103407194Y-82015096D01*
X103143859Y-81935214D01*
X102870000Y-81908241D01*
X102596140Y-81935214D01*
X102336583Y-82013950D01*
X102367807Y-81975903D01*
X103565908Y-80777803D01*
X103605396Y-80745396D01*
X103640844Y-80702203D01*
X103734734Y-80587798D01*
X103786104Y-80491691D01*
X103830841Y-80407993D01*
X103890024Y-80212895D01*
X103905000Y-80060838D01*
X103905000Y-80060829D01*
X103910006Y-80010001D01*
X103905000Y-79959173D01*
X103905000Y-76049320D01*
X103949494Y-76025537D01*
X104046185Y-75946185D01*
X104125537Y-75849494D01*
X104184502Y-75739180D01*
X104220812Y-75619482D01*
X104233072Y-75495000D01*
X104233072Y-74365000D01*
X104220812Y-74240518D01*
X104184502Y-74120820D01*
X104125537Y-74010506D01*
X104065000Y-73936741D01*
X104065000Y-73000956D01*
X104093426Y-72958413D01*
X104183884Y-72740027D01*
X104230000Y-72508190D01*
X104230000Y-72271810D01*
X104183884Y-72039973D01*
X104093426Y-71821587D01*
X103962101Y-71625045D01*
X103794955Y-71457899D01*
X103598413Y-71326574D01*
X103380027Y-71236116D01*
X103148190Y-71190000D01*
X102911810Y-71190000D01*
X102679973Y-71236116D01*
X102461587Y-71326574D01*
X102265045Y-71457899D01*
X102097899Y-71625045D01*
X101966574Y-71821587D01*
X101876116Y-72039973D01*
X101830000Y-72271810D01*
X101830000Y-72508190D01*
X101876116Y-72740027D01*
X101966574Y-72958413D01*
X101995001Y-73000957D01*
X101995000Y-73936741D01*
X101934463Y-74010506D01*
X101875498Y-74120820D01*
X101839188Y-74240518D01*
X101826928Y-74365000D01*
X101826928Y-75495000D01*
X101835001Y-75576968D01*
X101835000Y-79581289D01*
X101171290Y-80245000D01*
X94030827Y-80245000D01*
X93979999Y-80239994D01*
X93929171Y-80245000D01*
X93929162Y-80245000D01*
X93777105Y-80259976D01*
X93582007Y-80319159D01*
X93498309Y-80363896D01*
X93402202Y-80415266D01*
X93284092Y-80512197D01*
X93244604Y-80544604D01*
X93212197Y-80584092D01*
X92014092Y-81782198D01*
X91974605Y-81814604D01*
X91942198Y-81854092D01*
X91942197Y-81854093D01*
X91845266Y-81972203D01*
X91749160Y-82152007D01*
X91689977Y-82347105D01*
X91689340Y-82353575D01*
X91542817Y-82532114D01*
X91413096Y-82774806D01*
X91333214Y-83038141D01*
X91313000Y-83243376D01*
X89027000Y-83243376D01*
X89027000Y-83243375D01*
X89006786Y-83038140D01*
X88926904Y-82774805D01*
X88797183Y-82532113D01*
X88622607Y-82319392D01*
X88409886Y-82144817D01*
X88167194Y-82015096D01*
X87903859Y-81935214D01*
X87630000Y-81908241D01*
X87356140Y-81935214D01*
X87092805Y-82015096D01*
X86850113Y-82144817D01*
X86637392Y-82319393D01*
X86462817Y-82532114D01*
X86360000Y-82724471D01*
X86257183Y-82532113D01*
X86082607Y-82319392D01*
X85869886Y-82144817D01*
X85627194Y-82015096D01*
X85363859Y-81935214D01*
X85090000Y-81908241D01*
X84816140Y-81935214D01*
X84552805Y-82015096D01*
X84310113Y-82144817D01*
X84097392Y-82319393D01*
X83922817Y-82532114D01*
X83818962Y-82726414D01*
X83792059Y-82660058D01*
X83641006Y-82430271D01*
X83448026Y-82234368D01*
X83220535Y-82079878D01*
X82967276Y-81972738D01*
X82893070Y-81957780D01*
X82677000Y-82080280D01*
X82423000Y-82080280D01*
X82206930Y-81957780D01*
X82132724Y-81972738D01*
X81879465Y-82079878D01*
X81651974Y-82234368D01*
X81458994Y-82430271D01*
X81307941Y-82660058D01*
X81281038Y-82726413D01*
X81177183Y-82532113D01*
X81002607Y-82319392D01*
X80789886Y-82144817D01*
X80547194Y-82015096D01*
X80283859Y-81935214D01*
X80010000Y-81908241D01*
X79736140Y-81935214D01*
X79472805Y-82015096D01*
X79230113Y-82144817D01*
X79017392Y-82319393D01*
X78842817Y-82532114D01*
X78740000Y-82724471D01*
X78637183Y-82532113D01*
X78505000Y-82371048D01*
X78505000Y-81708710D01*
X79168711Y-81045000D01*
X82499172Y-81045000D01*
X82550000Y-81050006D01*
X82600828Y-81045000D01*
X82600838Y-81045000D01*
X82752895Y-81030024D01*
X82947993Y-80970841D01*
X83127797Y-80874734D01*
X83285396Y-80745396D01*
X83317807Y-80705903D01*
X84515908Y-79507803D01*
X84555396Y-79475396D01*
X84590844Y-79432203D01*
X84684734Y-79317798D01*
X84736104Y-79221691D01*
X84780841Y-79137993D01*
X84840024Y-78942895D01*
X84855000Y-78790838D01*
X84855000Y-78790829D01*
X84860006Y-78740001D01*
X84855000Y-78689173D01*
X84855000Y-77194396D01*
X84934637Y-77114759D01*
X85091680Y-76879727D01*
X85199853Y-76618574D01*
X85255000Y-76341335D01*
X85255000Y-76058665D01*
X85236369Y-75965000D01*
X94479044Y-75965000D01*
X94521587Y-75993426D01*
X94739973Y-76083884D01*
X94971810Y-76130000D01*
X95208190Y-76130000D01*
X95440027Y-76083884D01*
X95658413Y-75993426D01*
X95854955Y-75862101D01*
X96022101Y-75694955D01*
X96153426Y-75498413D01*
X96243884Y-75280027D01*
X96290000Y-75048190D01*
X96290000Y-74811810D01*
X96243884Y-74579973D01*
X96153426Y-74361587D01*
X96022101Y-74165045D01*
X95854955Y-73997899D01*
X95658413Y-73866574D01*
X95440027Y-73776116D01*
X95208190Y-73730000D01*
X94971810Y-73730000D01*
X94739973Y-73776116D01*
X94521587Y-73866574D01*
X94479044Y-73895000D01*
X84855000Y-73895000D01*
X84855000Y-72271810D01*
X93890000Y-72271810D01*
X93890000Y-72508190D01*
X93936116Y-72740027D01*
X94026574Y-72958413D01*
X94157899Y-73154955D01*
X94325045Y-73322101D01*
X94521587Y-73453426D01*
X94739973Y-73543884D01*
X94971810Y-73590000D01*
X95208190Y-73590000D01*
X95440027Y-73543884D01*
X95658413Y-73453426D01*
X95854955Y-73322101D01*
X96022101Y-73154955D01*
X96153426Y-72958413D01*
X96243884Y-72740027D01*
X96290000Y-72508190D01*
X96290000Y-72271810D01*
X96243884Y-72039973D01*
X96153426Y-71821587D01*
X96022101Y-71625045D01*
X95854955Y-71457899D01*
X95658413Y-71326574D01*
X95440027Y-71236116D01*
X95208190Y-71190000D01*
X94971810Y-71190000D01*
X94739973Y-71236116D01*
X94521587Y-71326574D01*
X94325045Y-71457899D01*
X94157899Y-71625045D01*
X94026574Y-71821587D01*
X93936116Y-72039973D01*
X93890000Y-72271810D01*
X84855000Y-72271810D01*
X84855000Y-70037454D01*
X84914180Y-70019502D01*
X85024494Y-69960537D01*
X85121185Y-69881185D01*
X85200537Y-69784494D01*
X85228697Y-69731810D01*
X93890000Y-69731810D01*
X93890000Y-69968190D01*
X93936116Y-70200027D01*
X94026574Y-70418413D01*
X94157899Y-70614955D01*
X94325045Y-70782101D01*
X94521587Y-70913426D01*
X94739973Y-71003884D01*
X94971810Y-71050000D01*
X95208190Y-71050000D01*
X95440027Y-71003884D01*
X95658413Y-70913426D01*
X95854955Y-70782101D01*
X96022101Y-70614955D01*
X96153426Y-70418413D01*
X96243884Y-70200027D01*
X96290000Y-69968190D01*
X96290000Y-69731810D01*
X96243884Y-69499973D01*
X96153426Y-69281587D01*
X96022101Y-69085045D01*
X95854955Y-68917899D01*
X95658413Y-68786574D01*
X95440027Y-68696116D01*
X95208190Y-68650000D01*
X94971810Y-68650000D01*
X94739973Y-68696116D01*
X94521587Y-68786574D01*
X94325045Y-68917899D01*
X94157899Y-69085045D01*
X94026574Y-69281587D01*
X93936116Y-69499973D01*
X93890000Y-69731810D01*
X85228697Y-69731810D01*
X85259502Y-69674180D01*
X85295812Y-69554482D01*
X85308072Y-69430000D01*
X85308072Y-67730000D01*
X85295812Y-67605518D01*
X85259502Y-67485820D01*
X85200537Y-67375506D01*
X85121185Y-67278815D01*
X85024494Y-67199463D01*
X85010177Y-67191810D01*
X93890000Y-67191810D01*
X93890000Y-67428190D01*
X93936116Y-67660027D01*
X94026574Y-67878413D01*
X94157899Y-68074955D01*
X94325045Y-68242101D01*
X94521587Y-68373426D01*
X94739973Y-68463884D01*
X94971810Y-68510000D01*
X95208190Y-68510000D01*
X95440027Y-68463884D01*
X95658413Y-68373426D01*
X95854955Y-68242101D01*
X96022101Y-68074955D01*
X96153426Y-67878413D01*
X96243884Y-67660027D01*
X96290000Y-67428190D01*
X96290000Y-67191810D01*
X96243884Y-66959973D01*
X96153426Y-66741587D01*
X96022101Y-66545045D01*
X95854955Y-66377899D01*
X95658413Y-66246574D01*
X95440027Y-66156116D01*
X95208190Y-66110000D01*
X94971810Y-66110000D01*
X94739973Y-66156116D01*
X94521587Y-66246574D01*
X94325045Y-66377899D01*
X94157899Y-66545045D01*
X94026574Y-66741587D01*
X93936116Y-66959973D01*
X93890000Y-67191810D01*
X85010177Y-67191810D01*
X84914180Y-67140498D01*
X84841620Y-67118487D01*
X84885107Y-67075000D01*
X92659172Y-67075000D01*
X92710000Y-67080006D01*
X92760828Y-67075000D01*
X92760838Y-67075000D01*
X92912895Y-67060024D01*
X93107993Y-67000841D01*
X93287797Y-66904734D01*
X93445396Y-66775396D01*
X93477807Y-66735903D01*
X94408711Y-65805000D01*
X96091290Y-65805000D01*
X100832197Y-70545908D01*
X100864604Y-70585396D01*
X100904092Y-70617803D01*
X101022202Y-70714734D01*
X101118309Y-70766104D01*
X101202007Y-70810841D01*
X101397105Y-70870024D01*
X101549162Y-70885000D01*
X101549164Y-70885000D01*
X101600000Y-70890007D01*
X101650835Y-70885000D01*
X102419044Y-70885000D01*
X102461587Y-70913426D01*
X102679973Y-71003884D01*
X102911810Y-71050000D01*
X103148190Y-71050000D01*
X103380027Y-71003884D01*
X103598413Y-70913426D01*
X103640956Y-70885000D01*
X104089172Y-70885000D01*
X104140000Y-70890006D01*
X104190828Y-70885000D01*
X104190838Y-70885000D01*
X104342895Y-70870024D01*
X104537993Y-70810841D01*
X104717797Y-70714734D01*
X104875396Y-70585396D01*
X104907807Y-70545903D01*
X107375908Y-68077803D01*
X107415396Y-68045396D01*
X107450844Y-68002202D01*
X107544734Y-67887798D01*
X107629078Y-67730000D01*
X107640841Y-67707993D01*
X107700024Y-67512895D01*
X107715000Y-67360838D01*
X107715000Y-67360829D01*
X107720006Y-67310001D01*
X107715000Y-67259173D01*
X107715000Y-64494396D01*
X107794637Y-64414759D01*
X107951680Y-64179727D01*
X108059853Y-63918574D01*
X108115000Y-63641335D01*
X108115000Y-63358665D01*
X108059853Y-63081426D01*
X107951680Y-62820273D01*
X107794637Y-62585241D01*
X107594759Y-62385363D01*
X107359727Y-62228320D01*
X107098574Y-62120147D01*
X106821335Y-62065000D01*
X106538665Y-62065000D01*
X106261426Y-62120147D01*
X106000273Y-62228320D01*
X105765241Y-62385363D01*
X105565363Y-62585241D01*
X105408320Y-62820273D01*
X105300147Y-63081426D01*
X105245000Y-63358665D01*
X105245000Y-63641335D01*
X105300147Y-63918574D01*
X105408320Y-64179727D01*
X105565363Y-64414759D01*
X105645001Y-64494397D01*
X105645000Y-66881289D01*
X103711290Y-68815000D01*
X103640956Y-68815000D01*
X103598413Y-68786574D01*
X103380027Y-68696116D01*
X103148190Y-68650000D01*
X102911810Y-68650000D01*
X102679973Y-68696116D01*
X102461587Y-68786574D01*
X102419044Y-68815000D01*
X102028711Y-68815000D01*
X101348427Y-68134716D01*
X102384889Y-68134716D01*
X102427933Y-68354740D01*
X102643320Y-68452123D01*
X102873567Y-68505615D01*
X103109826Y-68513160D01*
X103343017Y-68474468D01*
X103564179Y-68391027D01*
X103632067Y-68354740D01*
X103675111Y-68134716D01*
X103030000Y-67489605D01*
X102384889Y-68134716D01*
X101348427Y-68134716D01*
X100603537Y-67389826D01*
X101826840Y-67389826D01*
X101865532Y-67623017D01*
X101948973Y-67844179D01*
X101985260Y-67912067D01*
X102205284Y-67955111D01*
X102850395Y-67310000D01*
X103209605Y-67310000D01*
X103854716Y-67955111D01*
X104074740Y-67912067D01*
X104172123Y-67696680D01*
X104225615Y-67466433D01*
X104233160Y-67230174D01*
X104194468Y-66996983D01*
X104111027Y-66775821D01*
X104074740Y-66707933D01*
X103854716Y-66664889D01*
X103209605Y-67310000D01*
X102850395Y-67310000D01*
X102205284Y-66664889D01*
X101985260Y-66707933D01*
X101887877Y-66923320D01*
X101834385Y-67153567D01*
X101826840Y-67389826D01*
X100603537Y-67389826D01*
X99698995Y-66485284D01*
X102384889Y-66485284D01*
X103030000Y-67130395D01*
X103675111Y-66485284D01*
X103632067Y-66265260D01*
X103416680Y-66167877D01*
X103186433Y-66114385D01*
X102950174Y-66106840D01*
X102716983Y-66145532D01*
X102495821Y-66228973D01*
X102427933Y-66265260D01*
X102384889Y-66485284D01*
X99698995Y-66485284D01*
X97287807Y-64074097D01*
X97255396Y-64034604D01*
X97097797Y-63905266D01*
X96917993Y-63809159D01*
X96722895Y-63749976D01*
X96570838Y-63735000D01*
X96570828Y-63735000D01*
X96520000Y-63729994D01*
X96469172Y-63735000D01*
X94030827Y-63735000D01*
X93979999Y-63729994D01*
X93929171Y-63735000D01*
X93929162Y-63735000D01*
X93777105Y-63749976D01*
X93582007Y-63809159D01*
X93498309Y-63853896D01*
X93402202Y-63905266D01*
X93284092Y-64002197D01*
X93244604Y-64034604D01*
X93212197Y-64074092D01*
X92281290Y-65005000D01*
X84885107Y-65005000D01*
X84766632Y-64886525D01*
X84523411Y-64724010D01*
X84253158Y-64612068D01*
X83966260Y-64555000D01*
X83673740Y-64555000D01*
X83386842Y-64612068D01*
X83116589Y-64724010D01*
X82873368Y-64886525D01*
X82666525Y-65093368D01*
X82504010Y-65336589D01*
X82392068Y-65606842D01*
X82335000Y-65893740D01*
X82335000Y-66186260D01*
X82392068Y-66473158D01*
X82504010Y-66743411D01*
X82666525Y-66986632D01*
X82798380Y-67118487D01*
X82725820Y-67140498D01*
X82627019Y-67193309D01*
X82315000Y-66881290D01*
X82315000Y-63928710D01*
X84248711Y-61995000D01*
X87579172Y-61995000D01*
X87630000Y-62000006D01*
X87680828Y-61995000D01*
X87680838Y-61995000D01*
X87832895Y-61980024D01*
X88027993Y-61920841D01*
X88207797Y-61824734D01*
X88365396Y-61695396D01*
X88397807Y-61655903D01*
X93824670Y-56229040D01*
X105288091Y-56229040D01*
X105382930Y-56493881D01*
X105527615Y-56735131D01*
X105716586Y-56943519D01*
X105942580Y-57111037D01*
X106196913Y-57231246D01*
X106330961Y-57271904D01*
X106553000Y-57149915D01*
X106553000Y-56007000D01*
X106807000Y-56007000D01*
X106807000Y-57149915D01*
X107029039Y-57271904D01*
X107163087Y-57231246D01*
X107417420Y-57111037D01*
X107643414Y-56943519D01*
X107832385Y-56735131D01*
X107977070Y-56493881D01*
X108071909Y-56229040D01*
X107950624Y-56007000D01*
X106807000Y-56007000D01*
X106553000Y-56007000D01*
X105409376Y-56007000D01*
X105288091Y-56229040D01*
X93824670Y-56229040D01*
X94522750Y-55530960D01*
X105288091Y-55530960D01*
X105409376Y-55753000D01*
X106553000Y-55753000D01*
X106553000Y-54610085D01*
X106807000Y-54610085D01*
X106807000Y-55753000D01*
X107950624Y-55753000D01*
X108071909Y-55530960D01*
X107977070Y-55266119D01*
X107832385Y-55024869D01*
X107643414Y-54816481D01*
X107417420Y-54648963D01*
X107163087Y-54528754D01*
X107029039Y-54488096D01*
X106807000Y-54610085D01*
X106553000Y-54610085D01*
X106330961Y-54488096D01*
X106196913Y-54528754D01*
X105942580Y-54648963D01*
X105716586Y-54816481D01*
X105527615Y-55024869D01*
X105382930Y-55266119D01*
X105288091Y-55530960D01*
X94522750Y-55530960D01*
X97818711Y-52235000D01*
X97931335Y-52235000D01*
X98208574Y-52179853D01*
X98469727Y-52071680D01*
X98704759Y-51914637D01*
X98904637Y-51714759D01*
X99061680Y-51479727D01*
X99169853Y-51218574D01*
X99225000Y-50941335D01*
X99225000Y-50658665D01*
X99169853Y-50381426D01*
X99061680Y-50120273D01*
X98904637Y-49885241D01*
X98704759Y-49685363D01*
X98469727Y-49528320D01*
X98208574Y-49420147D01*
X97931335Y-49365000D01*
X97648665Y-49365000D01*
X97371426Y-49420147D01*
X97110273Y-49528320D01*
X96875241Y-49685363D01*
X96675363Y-49885241D01*
X96518320Y-50120273D01*
X96410147Y-50381426D01*
X96355000Y-50658665D01*
X96355000Y-50771289D01*
X87201290Y-59925000D01*
X83870827Y-59925000D01*
X83819999Y-59919994D01*
X83769171Y-59925000D01*
X83769162Y-59925000D01*
X83617105Y-59939976D01*
X83422007Y-59999159D01*
X83338309Y-60043896D01*
X83242202Y-60095266D01*
X83124092Y-60192197D01*
X83084604Y-60224604D01*
X83052197Y-60264092D01*
X80584092Y-62732198D01*
X80544605Y-62764604D01*
X80512198Y-62804092D01*
X80512197Y-62804093D01*
X80415266Y-62922203D01*
X80319160Y-63102007D01*
X80259977Y-63297105D01*
X80239994Y-63500000D01*
X80245001Y-63550838D01*
X80245000Y-67259172D01*
X80239994Y-67310000D01*
X80245000Y-67360828D01*
X80245000Y-67360837D01*
X80259976Y-67512894D01*
X80319159Y-67707992D01*
X80415266Y-67887797D01*
X80544604Y-68045396D01*
X80584097Y-68077807D01*
X81782197Y-69275908D01*
X81814604Y-69315396D01*
X81854092Y-69347803D01*
X81972202Y-69444734D01*
X82068309Y-69496104D01*
X82152007Y-69540841D01*
X82347105Y-69600024D01*
X82358339Y-69601130D01*
X82380498Y-69674180D01*
X82439463Y-69784494D01*
X82518815Y-69881185D01*
X82615506Y-69960537D01*
X82725820Y-70019502D01*
X82785001Y-70037454D01*
X82785000Y-74879162D01*
X82779993Y-74930000D01*
X82785001Y-74980847D01*
X82785001Y-75205603D01*
X82705363Y-75285241D01*
X82548320Y-75520273D01*
X82440147Y-75781426D01*
X82385000Y-76058665D01*
X82385000Y-76341335D01*
X82440147Y-76618574D01*
X82548320Y-76879727D01*
X82705363Y-77114759D01*
X82785001Y-77194397D01*
X82785000Y-78311289D01*
X82121290Y-78975000D01*
X78790827Y-78975000D01*
X78739999Y-78969994D01*
X78689171Y-78975000D01*
X78689162Y-78975000D01*
X78537105Y-78989976D01*
X78342007Y-79049159D01*
X78258309Y-79093896D01*
X78162202Y-79145266D01*
X78044092Y-79242197D01*
X78004604Y-79274604D01*
X77972197Y-79314092D01*
X77597000Y-79689289D01*
X77597000Y-76532371D01*
X77635000Y-76341335D01*
X77635000Y-76058665D01*
X77597000Y-75867629D01*
X77597000Y-67067499D01*
X77672895Y-67060024D01*
X77867993Y-67000841D01*
X78047797Y-66904734D01*
X78205396Y-66775396D01*
X78237807Y-66735903D01*
X79435908Y-65537803D01*
X79475396Y-65505396D01*
X79526078Y-65443640D01*
X79604734Y-65347798D01*
X79663724Y-65237434D01*
X79700841Y-65167993D01*
X79760024Y-64972895D01*
X79775000Y-64820838D01*
X79775000Y-64820829D01*
X79780006Y-64770001D01*
X79775000Y-64719173D01*
X79775000Y-62658710D01*
X84515908Y-57917803D01*
X84555396Y-57885396D01*
X84587803Y-57845908D01*
X84684734Y-57727798D01*
X84780840Y-57547994D01*
X84780841Y-57547993D01*
X84840024Y-57352895D01*
X84855000Y-57200838D01*
X84855000Y-57200836D01*
X84860007Y-57150000D01*
X84855000Y-57099165D01*
X84855000Y-51892683D01*
X84924494Y-51855537D01*
X85021185Y-51776185D01*
X85100537Y-51679494D01*
X85159502Y-51569180D01*
X85195812Y-51449482D01*
X85208072Y-51325000D01*
X85208072Y-50565000D01*
X87201290Y-50565000D01*
X88132197Y-51495908D01*
X88164604Y-51535396D01*
X88204092Y-51567803D01*
X88322202Y-51664734D01*
X88415793Y-51714759D01*
X88502007Y-51760841D01*
X88697105Y-51820024D01*
X88849162Y-51835000D01*
X88849171Y-51835000D01*
X88899999Y-51840006D01*
X88950827Y-51835000D01*
X91715604Y-51835000D01*
X91795241Y-51914637D01*
X92030273Y-52071680D01*
X92291426Y-52179853D01*
X92568665Y-52235000D01*
X92851335Y-52235000D01*
X93128574Y-52179853D01*
X93389727Y-52071680D01*
X93624759Y-51914637D01*
X93824637Y-51714759D01*
X93981680Y-51479727D01*
X94089853Y-51218574D01*
X94145000Y-50941335D01*
X94145000Y-50658665D01*
X94089853Y-50381426D01*
X93981680Y-50120273D01*
X93824637Y-49885241D01*
X93624759Y-49685363D01*
X93389727Y-49528320D01*
X93128574Y-49420147D01*
X92851335Y-49365000D01*
X92568665Y-49365000D01*
X92291426Y-49420147D01*
X92030273Y-49528320D01*
X91795241Y-49685363D01*
X91715604Y-49765000D01*
X89328711Y-49765000D01*
X88397807Y-48834097D01*
X88365396Y-48794604D01*
X88207797Y-48665266D01*
X88027993Y-48569159D01*
X87832895Y-48509976D01*
X87680838Y-48495000D01*
X87680828Y-48495000D01*
X87630000Y-48489994D01*
X87579172Y-48495000D01*
X85114146Y-48495000D01*
X85038163Y-48387000D01*
X84273109Y-48387000D01*
X84272400Y-48386785D01*
X84101979Y-48370000D01*
X83538021Y-48370000D01*
X83367600Y-48386785D01*
X83366891Y-48387000D01*
X82601837Y-48387000D01*
X82476036Y-48565810D01*
X82484728Y-48627337D01*
X82577725Y-48836882D01*
X82618929Y-48895331D01*
X82518115Y-49083940D01*
X82451785Y-49302600D01*
X82429388Y-49530000D01*
X82451785Y-49757400D01*
X82515093Y-49966098D01*
X82480498Y-50030820D01*
X82444188Y-50150518D01*
X82431928Y-50275000D01*
X82431928Y-51325000D01*
X82444188Y-51449482D01*
X82480498Y-51569180D01*
X82539463Y-51679494D01*
X82618815Y-51776185D01*
X82715506Y-51855537D01*
X82785000Y-51892683D01*
X82785001Y-56721288D01*
X78044097Y-61462193D01*
X78004604Y-61494604D01*
X77875266Y-61652203D01*
X77779159Y-61832008D01*
X77719976Y-62027106D01*
X77705000Y-62179163D01*
X77705000Y-62179172D01*
X77699994Y-62230000D01*
X77705000Y-62280828D01*
X77705001Y-64341288D01*
X77597000Y-64449289D01*
X77597000Y-55880000D01*
X77594560Y-55855224D01*
X77587333Y-55831399D01*
X77575597Y-55809443D01*
X77559803Y-55790197D01*
X75057000Y-53287394D01*
X75057000Y-49673407D01*
X75105820Y-49699502D01*
X75225518Y-49735812D01*
X75350000Y-49748072D01*
X75914250Y-49745000D01*
X76073000Y-49586250D01*
X76073000Y-48387000D01*
X76327000Y-48387000D01*
X76327000Y-49586250D01*
X76485750Y-49745000D01*
X77050000Y-49748072D01*
X77174482Y-49735812D01*
X77294180Y-49699502D01*
X77404494Y-49640537D01*
X77501185Y-49561185D01*
X77580537Y-49464494D01*
X77639502Y-49354180D01*
X77675812Y-49234482D01*
X77688072Y-49110000D01*
X77685000Y-48545750D01*
X77526250Y-48387000D01*
X76327000Y-48387000D01*
X76073000Y-48387000D01*
X76053000Y-48387000D01*
X76053000Y-48133000D01*
X76073000Y-48133000D01*
X76073000Y-48113000D01*
X76327000Y-48113000D01*
X76327000Y-48133000D01*
X77526250Y-48133000D01*
X77685000Y-47974250D01*
X77685109Y-47954190D01*
X82476036Y-47954190D01*
X82601837Y-48133000D01*
X83693000Y-48133000D01*
X83693000Y-47253402D01*
X83947000Y-47253402D01*
X83947000Y-48133000D01*
X85038163Y-48133000D01*
X85163964Y-47954190D01*
X85155272Y-47892663D01*
X85062275Y-47683118D01*
X84930184Y-47495742D01*
X84764076Y-47337736D01*
X84570334Y-47215172D01*
X84356404Y-47132761D01*
X84130507Y-47093669D01*
X83947000Y-47253402D01*
X83693000Y-47253402D01*
X83509493Y-47093669D01*
X83283596Y-47132761D01*
X83069666Y-47215172D01*
X82875924Y-47337736D01*
X82709816Y-47495742D01*
X82577725Y-47683118D01*
X82484728Y-47892663D01*
X82476036Y-47954190D01*
X77685109Y-47954190D01*
X77688072Y-47410000D01*
X77675812Y-47285518D01*
X77639502Y-47165820D01*
X77580537Y-47055506D01*
X77501185Y-46958815D01*
X77404494Y-46879463D01*
X77294180Y-46820498D01*
X77221620Y-46798487D01*
X77265107Y-46755000D01*
X95199172Y-46755000D01*
X95250000Y-46760006D01*
X95300828Y-46755000D01*
X95300838Y-46755000D01*
X95452895Y-46740024D01*
X95647993Y-46680841D01*
X95827797Y-46584734D01*
X95985396Y-46455396D01*
X96017807Y-46415903D01*
X97818711Y-44615000D01*
X97931335Y-44615000D01*
X98208574Y-44559853D01*
X98469727Y-44451680D01*
X98704759Y-44294637D01*
X98904637Y-44094759D01*
X99061680Y-43859727D01*
X99169853Y-43598574D01*
X99225000Y-43321335D01*
X99225000Y-43208710D01*
X101025908Y-41407803D01*
X101065396Y-41375396D01*
X101097803Y-41335908D01*
X101194734Y-41217798D01*
X101290840Y-41037994D01*
X101290841Y-41037993D01*
X101350024Y-40842895D01*
X101365000Y-40690838D01*
X101365000Y-40690829D01*
X101370006Y-40640001D01*
X101365000Y-40589173D01*
X101365000Y-37008953D01*
X101497183Y-36847887D01*
X101600000Y-36655529D01*
X101702817Y-36847887D01*
X101877393Y-37060608D01*
X102090114Y-37235183D01*
X102332806Y-37364904D01*
X102596141Y-37444786D01*
X102870000Y-37471759D01*
X103143860Y-37444786D01*
X103407195Y-37364904D01*
X103649887Y-37235183D01*
X103862608Y-37060608D01*
X104037183Y-36847887D01*
X104140000Y-36655529D01*
X104242817Y-36847887D01*
X104417393Y-37060608D01*
X104630114Y-37235183D01*
X104872806Y-37364904D01*
X105136141Y-37444786D01*
X105410000Y-37471759D01*
X105683860Y-37444786D01*
X105947195Y-37364904D01*
X106189887Y-37235183D01*
X106402608Y-37060608D01*
X106577183Y-36847887D01*
X106706904Y-36605195D01*
X106786786Y-36341860D01*
X106807000Y-36136625D01*
X106807000Y-34983375D01*
X106786786Y-34778140D01*
X106706904Y-34514805D01*
X106577183Y-34272113D01*
X106402607Y-34059392D01*
X106189886Y-33884817D01*
X105947194Y-33755096D01*
X105683859Y-33675214D01*
X105410000Y-33648241D01*
X105136140Y-33675214D01*
X104872805Y-33755096D01*
X104630113Y-33884817D01*
X104417392Y-34059393D01*
X104242817Y-34272114D01*
X104140000Y-34464471D01*
X104037183Y-34272113D01*
X103862607Y-34059392D01*
X103649886Y-33884817D01*
X103407194Y-33755096D01*
X103143859Y-33675214D01*
X102870000Y-33648241D01*
X102596140Y-33675214D01*
X102332805Y-33755096D01*
X102090113Y-33884817D01*
X101877392Y-34059393D01*
X101702817Y-34272114D01*
X101600000Y-34464471D01*
X101497183Y-34272113D01*
X101322607Y-34059392D01*
X101109886Y-33884817D01*
X100867194Y-33755096D01*
X100603859Y-33675214D01*
X100330000Y-33648241D01*
X100056140Y-33675214D01*
X99792805Y-33755096D01*
X99550113Y-33884817D01*
X99337392Y-34059393D01*
X99162817Y-34272114D01*
X99060000Y-34464471D01*
X98957183Y-34272113D01*
X98782607Y-34059392D01*
X98569886Y-33884817D01*
X98327194Y-33755096D01*
X98063859Y-33675214D01*
X97790000Y-33648241D01*
X97516140Y-33675214D01*
X97252805Y-33755096D01*
X97010113Y-33884817D01*
X96797392Y-34059393D01*
X96622817Y-34272114D01*
X96520000Y-34464471D01*
X96417183Y-34272113D01*
X96242607Y-34059392D01*
X96029886Y-33884817D01*
X95787194Y-33755096D01*
X95523859Y-33675214D01*
X95250000Y-33648241D01*
X94976140Y-33675214D01*
X94712805Y-33755096D01*
X94470113Y-33884817D01*
X94257392Y-34059393D01*
X94082817Y-34272114D01*
X93980000Y-34464471D01*
X93877183Y-34272113D01*
X93702607Y-34059392D01*
X93489886Y-33884817D01*
X93247194Y-33755096D01*
X92983859Y-33675214D01*
X92710000Y-33648241D01*
X92436140Y-33675214D01*
X92172805Y-33755096D01*
X91930113Y-33884817D01*
X91717392Y-34059393D01*
X91542817Y-34272114D01*
X91440000Y-34464471D01*
X91337183Y-34272113D01*
X91162607Y-34059392D01*
X90949886Y-33884817D01*
X90707194Y-33755096D01*
X90443859Y-33675214D01*
X90170000Y-33648241D01*
X89896140Y-33675214D01*
X89632805Y-33755096D01*
X89390113Y-33884817D01*
X89177392Y-34059393D01*
X89002817Y-34272114D01*
X88900000Y-34464471D01*
X88797183Y-34272113D01*
X88622607Y-34059392D01*
X88409886Y-33884817D01*
X88167194Y-33755096D01*
X87903859Y-33675214D01*
X87630000Y-33648241D01*
X87356140Y-33675214D01*
X87092805Y-33755096D01*
X86850113Y-33884817D01*
X86637392Y-34059393D01*
X86462817Y-34272114D01*
X86333096Y-34514806D01*
X86253214Y-34778141D01*
X86233000Y-34983376D01*
X86233000Y-36136625D01*
X86253214Y-36341860D01*
X86333096Y-36605195D01*
X86462817Y-36847887D01*
X86637393Y-37060608D01*
X86850114Y-37235183D01*
X87092806Y-37364904D01*
X87356141Y-37444786D01*
X87630000Y-37471759D01*
X87903860Y-37444786D01*
X88167195Y-37364904D01*
X88409887Y-37235183D01*
X88622608Y-37060608D01*
X88797183Y-36847887D01*
X88900000Y-36655529D01*
X89002817Y-36847887D01*
X89177393Y-37060608D01*
X89390114Y-37235183D01*
X89632806Y-37364904D01*
X89896141Y-37444786D01*
X90170000Y-37471759D01*
X90443860Y-37444786D01*
X90707195Y-37364904D01*
X90949887Y-37235183D01*
X91162608Y-37060608D01*
X91337183Y-36847887D01*
X91440000Y-36655529D01*
X91542817Y-36847887D01*
X91717393Y-37060608D01*
X91930114Y-37235183D01*
X92172806Y-37364904D01*
X92436141Y-37444786D01*
X92710000Y-37471759D01*
X92983860Y-37444786D01*
X93247195Y-37364904D01*
X93489887Y-37235183D01*
X93702608Y-37060608D01*
X93877183Y-36847887D01*
X93980000Y-36655529D01*
X94082817Y-36847887D01*
X94257393Y-37060608D01*
X94470114Y-37235183D01*
X94712806Y-37364904D01*
X94976141Y-37444786D01*
X95250000Y-37471759D01*
X95523860Y-37444786D01*
X95787195Y-37364904D01*
X96029887Y-37235183D01*
X96242608Y-37060608D01*
X96417183Y-36847887D01*
X96520000Y-36655529D01*
X96622817Y-36847887D01*
X96755001Y-37008953D01*
X96755001Y-37671288D01*
X92681290Y-41745000D01*
X92568665Y-41745000D01*
X92291426Y-41800147D01*
X92030273Y-41908320D01*
X91795241Y-42065363D01*
X91595363Y-42265241D01*
X91438320Y-42500273D01*
X91330147Y-42761426D01*
X91275000Y-43038665D01*
X91275000Y-43321335D01*
X91330147Y-43598574D01*
X91438320Y-43859727D01*
X91595363Y-44094759D01*
X91795241Y-44294637D01*
X92030273Y-44451680D01*
X92291426Y-44559853D01*
X92568665Y-44615000D01*
X92851335Y-44615000D01*
X93128574Y-44559853D01*
X93389727Y-44451680D01*
X93624759Y-44294637D01*
X93824637Y-44094759D01*
X93981680Y-43859727D01*
X94089853Y-43598574D01*
X94145000Y-43321335D01*
X94145000Y-43208710D01*
X98485908Y-38867803D01*
X98525396Y-38835396D01*
X98557803Y-38795908D01*
X98654734Y-38677798D01*
X98750840Y-38497994D01*
X98750841Y-38497993D01*
X98810024Y-38302895D01*
X98825000Y-38150838D01*
X98825000Y-38150836D01*
X98830007Y-38100000D01*
X98825000Y-38049165D01*
X98825000Y-37008953D01*
X98957183Y-36847887D01*
X99060000Y-36655529D01*
X99162817Y-36847887D01*
X99295000Y-37008952D01*
X99295001Y-40211288D01*
X97761290Y-41745000D01*
X97648665Y-41745000D01*
X97371426Y-41800147D01*
X97110273Y-41908320D01*
X96875241Y-42065363D01*
X96675363Y-42265241D01*
X96518320Y-42500273D01*
X96410147Y-42761426D01*
X96355000Y-43038665D01*
X96355000Y-43151289D01*
X94821290Y-44685000D01*
X77265107Y-44685000D01*
X77146632Y-44566525D01*
X76903411Y-44404010D01*
X76633158Y-44292068D01*
X76346260Y-44235000D01*
X76053740Y-44235000D01*
X75766842Y-44292068D01*
X75496589Y-44404010D01*
X75253368Y-44566525D01*
X75057000Y-44762893D01*
X75057000Y-33147000D01*
X106627394Y-33147000D01*
X107823000Y-34342606D01*
G37*
%TD.AperFunction*%
%TD*%
M02*
