M48
; DRILL file {KiCad (5.1.9)-1} date 05/12/21 10:10:03
; FORMAT={-:-/ absolute / inch / decimal}
; #@! TF.CreationDate,2021-05-12T10:10:03-03:00
; #@! TF.GenerationSoftware,Kicad,Pcbnew,(5.1.9)-1
; #@! TF.FileFunction,Plated,1,2,PTH
FMAT,2
INCH
T1C0.0291
T2C0.0295
T3C0.0307
T4C0.0315
T5C0.0394
T6C0.0394
T7C0.0433
T8C0.0598
%
G90
G05
T1
X2.7Y-2.5
X2.7Y-2.6
X2.7Y-2.7
X3.0Y-2.5
X3.0Y-2.6
X3.0Y-2.7
T2
X3.3Y-1.9
X3.3Y-1.95
X3.3Y-2.0
T3
X3.7437Y-2.65
X3.7437Y-2.75
X3.7437Y-2.85
X3.7437Y-2.95
X4.0563Y-2.65
X4.0563Y-2.75
X4.0563Y-2.85
X4.0563Y-2.95
T4
X2.35Y-2.0
X2.65Y-2.0
X3.0Y-3.0
X3.3Y-3.0
X3.65Y-1.7
X3.65Y-2.0
X3.85Y-1.7
X3.85Y-2.0
X4.2Y-2.2
X4.2Y-2.5
T5
X2.85Y-3.3
X2.95Y-3.3
X3.05Y-3.3
X3.15Y-3.3
X3.25Y-3.3
X3.35Y-3.3
X3.45Y-1.4
X3.45Y-3.3
X3.55Y-1.4
X3.65Y-1.4
X3.65Y-3.3
X3.75Y-1.4
X3.75Y-3.3
X3.85Y-1.4
X3.85Y-3.3
X3.95Y-1.4
X3.95Y-3.3
X4.05Y-1.4
X4.05Y-3.3
X4.15Y-1.4
X4.15Y-3.3
T6
X3.0Y-1.8
X3.0Y-1.9
X3.3Y-2.6
X3.3Y-2.7
T7
X2.2Y-3.05
X2.35Y-2.85
X2.5Y-3.05
T8
X2.15Y-1.65
X2.15Y-2.25
X2.15Y-2.45
X2.35Y-1.65
T0
M30
